<?xml version="1.0" encoding="UTF-8"?>
<!DOCTYPE svg PUBLIC "-//W3C//DTD SVG 1.0//EN" "http://www.w3.org/TR/2001/REC-SVG-20010904/DTD/svg10.dtd">
<!-- Creator: CorelDRAW X7 -->
<svg xmlns="http://www.w3.org/2000/svg" xml:space="preserve" width="3.76763cm" height="2.57494cm" version="1.0" style="shape-rendering:geometricPrecision; text-rendering:geometricPrecision; image-rendering:optimizeQuality; fill-rule:evenodd; clip-rule:evenodd"
viewBox="0 0 3768 2575"
 xmlns:xlink="http://www.w3.org/1999/xlink">
 <defs>
  <style type="text/css">
   <![CDATA[
    .fil0 {fill:#035BFF}
    .fil1 {fill:#2B2A29;fill-rule:nonzero}
   ]]>
  </style>
 </defs>
 <g id="Layer_x0020_1">
  <metadata id="CorelCorpID_0Corel-Layer"/>
  <g id="_1992486291568">
   <g id="Giift.svg">
    <g id="Layer_x0020_1_0">
     <path class="fil0" d="M1418 2066c-6,-35 -162,-73 -136,29 92,339 365,483 639,480 273,3 550,-141 638,-480 29,-102 -130,-67 -136,-29 -64,415 -938,415 -1005,0zm2350 -865l-321 0 0 362c0,85 50,141 135,141 59,0 112,-14 186,-53l0 200c-97,42 -171,56 -256,56 -186,0 -344,-82 -344,-329l0 -377 -127 0 0 -53 371 -411 35 0 0 276 321 0 0 188zm-800 -188l0 188 -127 0 0 692 -276 0 0 -692 -127 0 0 -188 127 0 0 -44c0,-259 161,-394 385,-394 53,0 126,12 171,18l0 223c-74,-9 -95,-12 -127,-12 -85,0 -153,39 -153,153l0 56 127 0zm-671 880l-279 0 0 -880 279 0 0 880zm15 -1165c0,82 -71,153 -153,153 -85,0 -153,-71 -153,-153 0,-85 70,-153 153,-153 82,0 153,68 153,153zm-486 1165l-276 0 0 -880 276 0 0 880zm12 -1165c0,82 -70,153 -153,153 -82,0 -153,-71 -153,-153 0,-85 71,-153 153,-153 83,0 153,68 153,153zm-535 238c-168,-79 -326,-121 -488,-121 -356,0 -480,218 -480,409 0,233 183,383 453,383 80,0 121,-9 218,-47l0 -153 -188 0 0 -239 514 0 0 533c-97,100 -338,176 -550,176 -458,3 -782,-273 -782,-664 0,-395 321,-668 788,-668 197,0 386,44 515,106l0 285z"/>
    </g>
   </g>
   <path class="fil1" d="M0 251l29 0 0 -92 38 0c51,0 86,-22 86,-71 0,-51 -35,-68 -87,-68l-66 0 0 231zm29 -116l0 -92 33 0c41,0 61,11 61,45 0,33 -19,47 -59,47l-35 0z"/>
   <path id="1" class="fil1" d="M255 255c42,0 79,-32 79,-89 0,-58 -37,-91 -79,-91 -42,0 -79,33 -79,91 0,57 37,89 79,89zm0 -24c-29,0 -49,-26 -49,-65 0,-40 20,-67 49,-67 30,0 49,27 49,67 0,39 -19,65 -49,65z"/>
   <path id="2" class="fil1" d="M405 251l34 0 24 -92c5,-16 8,-32 12,-49l2 0c4,17 7,33 11,49l25 92 35 0 46 -171 -27 0 -25 99c-4,16 -7,32 -11,47l-1 0c-4,-15 -8,-31 -12,-47l-27 -99 -29 0 -26 99c-4,16 -8,32 -12,47l-1 0c-3,-15 -6,-31 -10,-47l-26 -99 -29 0 47 171z"/>
   <path id="3" class="fil1" d="M700 255c23,0 41,-8 56,-17l-10 -19c-13,8 -27,13 -43,13 -33,0 -55,-23 -57,-59l116 0c0,-5 1,-11 1,-17 0,-49 -25,-81 -69,-81 -39,0 -77,35 -77,91 0,56 37,89 83,89zm-54 -103c3,-34 25,-54 49,-54 27,0 42,19 42,54l-91 0z"/>
   <path id="4" class="fil1" d="M805 251l29 0 0 -110c12,-29 29,-39 43,-39 7,0 11,1 17,2l6 -25c-6,-2 -11,-4 -19,-4 -19,0 -37,14 -48,36l-2 0 -2 -31 -24 0 0 171z"/>
   <path id="5" class="fil1" d="M993 255c24,0 42,-8 57,-17l-10 -19c-13,8 -27,13 -43,13 -33,0 -55,-23 -57,-59l116 0c0,-5 1,-11 1,-17 0,-49 -25,-81 -69,-81 -39,0 -77,35 -77,91 0,56 37,89 82,89zm-54 -103c4,-34 26,-54 50,-54 27,0 42,19 42,54l-92 0z"/>
   <path id="6" class="fil1" d="M1157 255c21,0 39,-11 52,-24l1 0 3 20 24 0 0 -251 -29 0 0 66 1 29c-15,-12 -28,-20 -48,-20 -39,0 -74,35 -74,91 0,57 27,89 70,89zm7 -24c-30,0 -47,-25 -47,-66 0,-39 21,-65 49,-65 14,0 27,5 42,18l0 89c-15,16 -28,24 -44,24z"/>
   <path id="7" class="fil1" d="M1441 255c39,0 74,-34 74,-92 0,-53 -23,-88 -68,-88 -19,0 -38,11 -54,24l1 -31 0 -68 -29 0 0 251 24 0 2 -17 1 0c15,13 33,21 49,21zm-5 -24c-11,0 -27,-5 -42,-18l0 -90c16,-15 32,-23 46,-23 32,0 45,25 45,63 0,42 -21,68 -49,68z"/>
   <path id="8" class="fil1" d="M1562 325c34,0 52,-26 64,-60l64 -185 -28 0 -30 95c-5,15 -10,32 -15,48l-1 0c-6,-16 -12,-34 -17,-48l-35 -95 -30 0 69 172 -4 12c-7,21 -19,37 -39,37 -4,0 -9,-1 -13,-3l-5 23c5,2 12,4 20,4z"/>
  </g>
 </g>
</svg>
