<svg xmlns="http://www.w3.org/2000/svg" width="55" height="54.821" viewBox="0 0 55 54.821">
  <g id="Flight" transform="translate(0 0.09)">
    <path id="Path_38247" data-name="Path 38247" d="M48.777.274a4.3,4.3,0,0,1,4.009.334,4.294,4.294,0,0,1,2,5.011,22.337,22.337,0,0,1-5.345,8.352l-7.684,7.684,1.67,5.68a3.585,3.585,0,0,1,3.675.334,2.849,2.849,0,0,1,0,4.343l-1.67,2,1,3.341a3.05,3.05,0,0,1,3.675.668,3.5,3.5,0,0,1,0,4.343l-1.67,1.336,1,4.009c.334.334,0,.668,0,1L45.1,53.06a1.227,1.227,0,0,1-1,.334c-.334,0-.334-.334-.668-.334v-.334L33.075,30.342l-6.014,6.014a.327.327,0,0,1-.334.334L22.384,39.7l2.673,11.025a1.227,1.227,0,0,1-.334,1L22.05,54.4a1.227,1.227,0,0,1-1,.334c-.334,0-.334,0-.668-.334h0L13.7,45.376a3.39,3.39,0,0,1-3.341-1h0a2.66,2.66,0,0,1-.668-3.341L.334,34.351h0C0,34.017,0,34.017,0,33.683s0-.668.334-.668l3.007-3.007c0-.334.334-.334.668-.334l11.025,2.673L18.041,28c.334,0,.334,0,.334-.334l6.014-6.014L2,11.633A.327.327,0,0,0,1.67,11.3c0-.334-.334-.334-.334-.668s0-.668.334-.668L6.014,5.619a1.227,1.227,0,0,1,1-.334l4.009,1,1.67-1.67a3.049,3.049,0,0,1,4.009,0,3.13,3.13,0,0,1,.668,3.675l3.675,1,1.67-1.67a3.5,3.5,0,0,1,4.343,0A3.038,3.038,0,0,1,27.4,11.3l5.68,1.67,7.684-7.684A20.313,20.313,0,0,1,48.777.274ZM46.438,4.951a3.408,3.408,0,0,1,3.007.668,2.522,2.522,0,0,1,.334,2.673l-1,2-2-1,1-2c.334,0,.334-.334,0-.334,0,0-.334-.334-.334,0l-2,1-1-2ZM10.691,39.028l3.341-4.677L4.343,31.678l-1.67,1.67Zm9.689,1.67L15.7,44.04l5.68,8.018,1.67-1.336ZM13.029,6.956l2.339.668h0a1.016,1.016,0,0,0,0-1.336,1.016,1.016,0,0,0-1.336,0ZM23.052,9.963l2.339.668h0c.668-.334.668-1,0-1.67a1.016,1.016,0,0,0-1.336,0Zm24.054,29.4.668,2.339.668-1a.7.7,0,0,0,0-1.336,1.016,1.016,0,0,0-1.336,0ZM44.1,29.34l.668,2.339,1-1a1.016,1.016,0,0,0,0-1.336,1.491,1.491,0,0,0-1.67,0ZM26.059,19.985,31.4,14.64,7.016,7.29,4.343,10.3Zm14.032,3.341-5.345,5.345,9.689,22.05,3.007-3.007ZM19.711,29.34,11.693,41.033a2.13,2.13,0,0,0,0,2,2.13,2.13,0,0,0,2,0l12.027-8.018L48.109,12.635a26.376,26.376,0,0,0,4.677-7.684,2.239,2.239,0,0,0-1-2.673,2.825,2.825,0,0,0-2.339,0,19.077,19.077,0,0,0-7.016,4.343l-8.352,8.352L27.061,21.99Z" transform="translate(0 0)" fill="#e5a812" fill-rule="evenodd"/>
  </g>
</svg>
