<?xml version="1.0" encoding="UTF-8"?>
<!DOCTYPE svg PUBLIC "-//W3C//DTD SVG 1.1//EN" "http://www.w3.org/Graphics/SVG/1.1/DTD/svg11.dtd">
<!-- Creator: CorelDRAW X7 -->
<svg xmlns="http://www.w3.org/2000/svg" xml:space="preserve" width="8.0882mm" height="14.0546mm" version="1.1" style="shape-rendering:geometricPrecision; text-rendering:geometricPrecision; image-rendering:optimizeQuality; fill-rule:evenodd; clip-rule:evenodd"
viewBox="0 0 157 273"
 xmlns:xlink="http://www.w3.org/1999/xlink">
 <defs>
  <style type="text/css">
   <![CDATA[
    .fil0 {fill:#E5A812}
   ]]>
  </style>
 </defs>
 <g id="Layer_x0020_1">
  <metadata id="CorelCorpID_0Corel-Layer"/>
  <path class="fil0" d="M135 71l-27 0 0 -59 12 0c2,0 5,-3 5,-7 0,-2 -3,-5 -5,-5l-81 0c-4,0 -7,3 -7,5 0,4 3,7 7,7l11 0 0 59 -28 0c-7,0 -12,2 -16,6 -3,4 -6,9 -6,16l0 158c0,11 9,22 22,22l113 0c13,0 22,-11 22,-22l0 -158c0,-7 -1,-12 -7,-16 -3,-4 -9,-6 -15,-6l0 0 0 0zm-75 -59l36 0 0 59 -36 0 0 -59zm53 164l-69 0 0 -17 69 0 0 17zm-69 10l69 0 0 17 -69 0 0 -17zm0 29l69 0 0 47 -69 0 0 -47zm103 36c0,6 -6,11 -12,11l-10 0 0 -108c0,-2 -3,-5 -5,-5l-81 0c-4,0 -6,3 -6,5l0 108 -11 0c-7,0 -10,-5 -10,-11l0 -158c0,-3 0,-7 2,-8 3,-3 5,-4 8,-4l113 0c4,0 6,1 8,4 2,1 4,5 4,8l0 158 0 0zm-49 -135l-38 0c-3,0 -5,2 -5,5 0,4 2,5 5,5l38 0c2,0 5,-1 5,-5 0,-3 -3,-5 -5,-5l0 0z"/>
 </g>
</svg>
