<svg id="Shop" xmlns="http://www.w3.org/2000/svg" width="45" height="53.133" viewBox="0 0 45 53.133">
  <g id="_1806621332528">
    <path id="Path_38228" data-name="Path 38228" d="M43.351,6.506A7.6,7.6,0,0,0,35.76,0,7.492,7.492,0,0,0,29.8,3.253a.751.751,0,0,0,0,1.084c.542.542,1.084,0,1.627,0A5.529,5.529,0,0,1,35.76,1.627c3.253,0,5.422,2.169,5.964,5.422a1.893,1.893,0,0,0,1.084.542h0C43.351,7.59,43.351,7.048,43.351,6.506Z" transform="translate(-13.531)" fill="#e5a812" fill-rule="evenodd"/>
    <path id="Path_38229" data-name="Path 38229" d="M44.319,26.88,41.608,22H38.355c-.542,0-1.084,0-1.084.542a1.166,1.166,0,0,0,1.084,1.084h2.169l1.626,2.711H5.825l1.627-2.711H8.536c.542,0,.542-.542.542-1.084s0-.542-.542-.542H6.367L3.657,26.88c-.542,0-.542.542,0,.542,0,.542,0,.542.542.542H43.777a.531.531,0,0,0,.542-.542C44.861,27.422,44.861,26.88,44.319,26.88Z" transform="translate(-1.488 -10.072)" fill="#e5a812" fill-rule="evenodd"/>
    <path id="Path_38230" data-name="Path 38230" d="M58.449,12.253h-.542L45.437,9l-.542.542-.542.542-.542,3.8c-.542.542,0,1.084.542,1.084a1.893,1.893,0,0,0,1.084-.542l.542-3.253,10.843,2.169L55.2,20.386c-.542.542,0,1.084.542,1.084h0c.542,0,1.084,0,1.084-.542l1.626-7.59Z" transform="translate(-19.955 -4.12)" fill="#e5a812" fill-rule="evenodd"/>
    <path id="Path_38231" data-name="Path 38231" d="M27.349,12.59l-.542-7.048A.531.531,0,0,1,26.265,5h-.542L10.542,6.627C10,6.627,10,7.169,10,7.711L11.084,19.1a1.166,1.166,0,0,0,1.084,1.084h0A1.166,1.166,0,0,0,13.253,19.1L11.627,8.253,25.181,7.169l.542,5.964c0,.542.542.542,1.084.542S27.349,13.133,27.349,12.59Z" transform="translate(-4.578 -2.289)" fill="#e5a812" fill-rule="evenodd"/>
    <path id="Path_38232" data-name="Path 38232" d="M39.892,24.133l-1.627-7.59A.531.531,0,0,0,37.723,16h-.542L22.542,19.253c0,.542-.542.542-.542,1.084l1.084,3.8c0,.542.542,1.084,1.084.542.542,0,.542-.542.542-1.084l-.542-2.711,12.47-2.711,1.627,6.506a1.893,1.893,0,0,0,1.084.542h0C39.892,25.217,40.434,24.675,39.892,24.133Z" transform="translate(-10.072 -7.325)" fill="#e5a812" fill-rule="evenodd"/>
    <path id="Path_38233" data-name="Path 38233" d="M42.831,30.542c0-.542,0-.542-.542-.542H2.711c-.542,0-1.084,0-1.084.542L0,65.783v.542c.542.542.542.542,1.084.542H43.916c.542,0,.542,0,.542-.542A.531.531,0,0,0,45,65.783ZM1.627,64.7,3.8,31.627H41.2L42.831,64.7Z" transform="translate(0 -13.735)" fill="#e5a812" fill-rule="evenodd"/>
    <path id="Path_38234" data-name="Path 38234" d="M51.711,36A2.9,2.9,0,0,0,49,38.711a2.711,2.711,0,1,0,5.422,0A2.9,2.9,0,0,0,51.711,36Zm0,3.8a1.166,1.166,0,0,1-1.084-1.084c0-.542.542-.542,1.084-.542s.542,0,.542.542S52.253,39.8,51.711,39.8Z" transform="translate(-22.434 -16.482)" fill="#e5a812" fill-rule="evenodd"/>
    <path id="Path_38235" data-name="Path 38235" d="M26.711,36A2.9,2.9,0,0,0,24,38.711a2.561,2.561,0,0,0,2.711,2.711,2.561,2.561,0,0,0,2.711-2.711A2.9,2.9,0,0,0,26.711,36Zm0,3.8a1.166,1.166,0,0,1-1.084-1.084c0-.542.542-.542,1.084-.542s1.084,0,1.084.542A1.166,1.166,0,0,1,26.711,39.8Z" transform="translate(-10.988 -16.482)" fill="#e5a812" fill-rule="evenodd"/>
    <path id="Path_38236" data-name="Path 38236" d="M41.639,41h0a1.166,1.166,0,0,0-1.084,1.084v4.88a6.017,6.017,0,0,1-5.964,5.964c-3.253,0-5.422-2.711-5.422-5.964v-4.88a1.084,1.084,0,1,0-2.169,0v4.88a7.754,7.754,0,0,0,7.59,7.59,7.412,7.412,0,0,0,7.59-7.59v-4.88C42.181,41.542,42.181,41,41.639,41Z" transform="translate(-12.361 -18.771)" fill="#e5a812" fill-rule="evenodd"/>
  </g>
</svg>
