<svg id="Hotels" xmlns="http://www.w3.org/2000/svg" width="45" height="53.269" viewBox="0 0 45 53.269">
  <path id="Path_38248" data-name="Path 38248" d="M20.077,46.538a.789.789,0,0,0-.692.769v.962a.789.789,0,0,0,.692.769.675.675,0,0,0,.692-.769v-.962A.675.675,0,0,0,20.077,46.538Zm4.673,0a.789.789,0,0,0-.692.769v.962a.7.7,0,1,0,1.385,0v-.962A.789.789,0,0,0,24.75,46.538ZM24.058,2.115a.675.675,0,0,0-.692.769V4.231H21.635V2.885a.7.7,0,1,0-1.385,0V5.192h0V7.308a.7.7,0,1,0,1.385,0V5.962h1.731V7.308a.675.675,0,0,0,.692.769.789.789,0,0,0,.692-.769V2.885A.789.789,0,0,0,24.058,2.115ZM44.135,25.962H35.654V12.885a.789.789,0,0,0-.692-.769h-.173V10.192h.865a.789.789,0,0,0,.692-.769V5.962a.789.789,0,0,0-.692-.769H27V.769A.789.789,0,0,0,26.308,0H18.519a.789.789,0,0,0-.692.769V5.192H9.173a.789.789,0,0,0-.692.769V9.423a.789.789,0,0,0,.692.769h.865v1.923h0a.789.789,0,0,0-.692.769v6.923a.789.789,0,0,0,.692.769.789.789,0,0,0,.692-.769V13.654H34.269V26.731h0V43.846h0v7.885h-2.6V49.808h.519a.668.668,0,0,0,.692-.769V43.846a.789.789,0,0,0-.692-.769H29.769c-.346,0-.692.385-.692.962v5a.668.668,0,0,0,.692.769h.519v1.923H27.865V43.077h.865a.789.789,0,0,0,.692-.769V38.846a.668.668,0,0,0-.692-.769H16.269a.668.668,0,0,0-.692.769v3.462a.789.789,0,0,0,.692.769h.865v8.654h-2.6V49.808h.519a.668.668,0,0,0,.692-.769V43.846a.789.789,0,0,0-.692-.769h-2.25c-.519,0-.692.385-.692.962v5c0,.577.173.769.692.769h.346v1.923H10.731V22.885a.789.789,0,0,0-.692-.769.789.789,0,0,0-.692.769v3.077H.692A.668.668,0,0,0,0,26.731V44.038a.789.789,0,0,0,.692.769h.865V52.5a.668.668,0,0,0,.692.769H42.577c.519,0,.865-.192.865-.769V44.808h.692A.821.821,0,0,0,45,44.038V26.731C45,26.154,44.654,25.962,44.135,25.962ZM9.346,51.731h-6.4V44.808h6.4Zm0-8.654H1.385V27.5H9.346Zm5.019,5.192H13.5V44.808h.865Zm7.442,3.462H18.519V43.077h3.288Zm4.673,0H23.192V43.077h3.288ZM17.827,41.346h-.865V39.615H28.038v1.731H17.827ZM31.5,48.269H30.462V44.808H31.5ZM19.212,1.538h6.4V5.962h0V8.654h-6.4ZM10.731,8.654h-.692V6.731h7.788V8.654ZM33.4,12.115H11.423V10.192H33.4ZM34.1,8.654H27V6.731h7.962V8.654Zm7.788,43.077H35.654V44.808h6.231Zm1.558-8.654H35.654V27.5h7.788Zm-27.173-27.5H13.154a.789.789,0,0,0-.692.769v3.462a.789.789,0,0,0,.692.769h3.115a.789.789,0,0,0,.692-.769V16.346A.789.789,0,0,0,16.269,15.577Zm-.692,3.462H13.846V17.115h1.731Zm.692,3.462H13.154a.789.789,0,0,0-.692.769v3.462a.789.789,0,0,0,.692.769h3.115a.789.789,0,0,0,.692-.769V23.269A.789.789,0,0,0,16.269,22.5Zm-.692,3.462H13.846V24.038h1.731Zm.692,3.462H13.154a.668.668,0,0,0-.692.769v3.462a.789.789,0,0,0,.692.769h3.115a.789.789,0,0,0,.692-.769V30.192A.668.668,0,0,0,16.269,29.423Zm-.692,3.462H13.846V30.962h1.731Zm8.481-3.462H20.942c-.519,0-.692.192-.692.769v3.462a.675.675,0,0,0,.692.769h3.115a.789.789,0,0,0,.692-.769V30.192A.668.668,0,0,0,24.058,29.423Zm-.692,3.462H21.635V30.962h1.731ZM24.058,22.5H20.942a.675.675,0,0,0-.692.769v3.462a.675.675,0,0,0,.692.769h3.115a.789.789,0,0,0,.692-.769V23.269A.789.789,0,0,0,24.058,22.5Zm-.692,3.462H21.635V24.038h1.731Zm.692-10.385H20.942a.675.675,0,0,0-.692.769v3.462a.675.675,0,0,0,.692.769h3.115a.789.789,0,0,0,.692-.769V16.346A.789.789,0,0,0,24.058,15.577Zm-.692,3.462H21.635V17.115h1.731Zm8.481-3.462H28.731a.675.675,0,0,0-.692.769v3.462a.675.675,0,0,0,.692.769h3.115a.789.789,0,0,0,.692-.769V16.346A.789.789,0,0,0,31.846,15.577Zm-.692,3.462H29.423V17.115h1.731Zm.692,3.462H28.731a.675.675,0,0,0-.692.769v3.462h0a.675.675,0,0,0,.692.769h3.115a.789.789,0,0,0,.692-.769V23.269A.789.789,0,0,0,31.846,22.5Zm-.692,3.462H29.423V24.038h1.731Zm.692,3.462H28.731c-.519,0-.692.192-.692.769v3.462h0a.675.675,0,0,0,.692.769h3.115a.789.789,0,0,0,.692-.769V30.192A.668.668,0,0,0,31.846,29.423Zm-.692,3.462H29.423V30.962h1.731ZM6.923,29.423H3.808a.668.668,0,0,0-.692.769v3.462a.789.789,0,0,0,.692.769H6.923a.789.789,0,0,0,.692-.769V30.192A.668.668,0,0,0,6.923,29.423Zm-.692,3.462H4.5V30.962H6.231Zm.692,3.462H3.808a.668.668,0,0,0-.692.769v3.462a.789.789,0,0,0,.692.769H6.923a.789.789,0,0,0,.692-.769V37.115A.668.668,0,0,0,6.923,36.346Zm-.692,3.269H4.5V37.885H6.231ZM41.019,29.423H38.077c-.519,0-.865.192-.865.769v3.462a.821.821,0,0,0,.865.769h2.942a.821.821,0,0,0,.865-.769V30.192C41.885,29.615,41.538,29.423,41.019,29.423Zm-.692,3.462H38.769V30.962h1.558Zm.692,3.462H38.077c-.519,0-.865.192-.865.769v3.462a.821.821,0,0,0,.865.769h2.942a.821.821,0,0,0,.865-.769V37.115C41.885,36.538,41.538,36.346,41.019,36.346Zm-.692,3.269H38.769V37.885h1.558Z" fill="#e5a812" fill-rule="evenodd"/>
</svg>
