<svg xmlns="http://www.w3.org/2000/svg" width="50" height="47.541" viewBox="0 0 50 47.541">
  <g id="armchair" transform="translate(-2 -2)">
    <path id="Path_78025" data-name="Path 78025" d="M18.279,22.407V24.2h1.639v-1.79a2.459,2.459,0,0,0,1.489-1.489H23.2V19.279h-1.79a2.459,2.459,0,0,0-1.489-1.489V16H18.279v1.79a2.459,2.459,0,0,0-1.489,1.489H15v1.639h1.79A2.459,2.459,0,0,0,18.279,22.407Zm.82-3.128a.82.82,0,1,1-.82.82A.82.82,0,0,1,19.1,19.279Z" transform="translate(-2.344 -2.525)" fill="#e5a812"/>
    <path id="Path_78026" data-name="Path 78026" d="M32.279,22.407V24.2h1.639v-1.79a2.459,2.459,0,0,0,1.489-1.489H37.2V19.279h-1.79a2.459,2.459,0,0,0-1.489-1.489V16H32.279v1.79a2.459,2.459,0,0,0-1.489,1.489H29v1.639h1.79A2.459,2.459,0,0,0,32.279,22.407Zm.82-3.128a.82.82,0,1,1-.82.82A.82.82,0,0,1,33.1,19.279Z" transform="translate(-4.869 -2.525)" fill="#e5a812"/>
    <path id="Path_78027" data-name="Path 78027" d="M18.279,33.407V35.2h1.639v-1.79a2.459,2.459,0,0,0,1.489-1.489H23.2V30.279h-1.79a2.459,2.459,0,0,0-1.489-1.489V27H18.279v1.79a2.459,2.459,0,0,0-1.489,1.489H15v1.639h1.79a2.459,2.459,0,0,0,1.489,1.489Zm.82-3.128a.82.82,0,1,1-.82.82A.82.82,0,0,1,19.1,30.279Z" transform="translate(-2.344 -4.508)" fill="#e5a812"/>
    <path id="Path_78028" data-name="Path 78028" d="M32.279,33.407V35.2h1.639v-1.79a2.459,2.459,0,0,0,1.489-1.489H37.2V30.279h-1.79a2.459,2.459,0,0,0-1.489-1.489V27H32.279v1.79a2.459,2.459,0,0,0-1.489,1.489H29v1.639h1.79a2.459,2.459,0,0,0,1.489,1.489Zm.82-3.128a.82.82,0,1,1-.82.82A.82.82,0,0,1,33.1,30.279Z" transform="translate(-4.869 -4.508)" fill="#e5a812"/>
    <path id="Path_78029" data-name="Path 78029" d="M9.377,49.541h41.8V47.9h-.82V45.443a.82.82,0,0,0-.82-.82H46.262V11.016h4.1a.82.82,0,0,0,.813-.718l.82-6.557a.82.82,0,0,0-.813-.921H46.262V2H44.623v.82H39.705a.82.82,0,0,0-.813.921l.82,6.557a.82.82,0,0,0,.813.718h4.1V44.623H41.344a.82.82,0,0,0-.82.82V47.9H38.76l-.686-4.116,1.549-12.36a3.279,3.279,0,0,0-.738-6.475h-.717l.058-.5a15.843,15.843,0,1,0-31.469,0l.058.5H6.1a3.279,3.279,0,0,0-.738,6.475L6.91,43.786,6.224,47.9H2v1.639ZM40.634,4.459h9.618l-.615,4.918H41.249ZM32.641,44.623,34.28,47.9H10.7l1.639-3.279Zm9.523,1.639h6.557V47.9H42.164ZM36.113,47.9l-1.639-3.279h2.078L37.1,47.9ZM8.385,24.262a14.2,14.2,0,1,1,28.213,0l-.082.689h-.4A3.289,3.289,0,0,0,32.87,27.8l-.6,4.532H12.717l-.6-4.531a3.289,3.289,0,0,0-3.25-2.846h-.4ZM31.508,37.246H13.475V33.967H31.508ZM6.1,29.869a1.639,1.639,0,1,1,0-3.279H8.863a1.643,1.643,0,0,1,1.625,1.423l1.356,10.164a.745.745,0,0,0,.039.119.716.716,0,0,0,.041.125.788.788,0,0,0,.1.148.717.717,0,0,0,.076.1.828.828,0,0,0,.164.109.923.923,0,0,0,.091.055.811.811,0,0,0,.3.058H32.328a.811.811,0,0,0,.306-.061.8.8,0,0,0,.091-.056.767.767,0,0,0,.164-.108.717.717,0,0,0,.076-.1.788.788,0,0,0,.1-.148.7.7,0,0,0,.041-.125.71.71,0,0,0,.039-.118L34.5,28.01a1.643,1.643,0,0,1,1.621-1.42h2.765a1.639,1.639,0,0,1,0,3.279.82.82,0,0,0-.813.718l-1.55,12.4H8.462l-1.55-12.4A.82.82,0,0,0,6.1,29.869ZM8.432,44.623H10.51L8.871,47.9H7.887Z" transform="translate(0 0)" fill="#e5a812"/>
  </g>
</svg>
