<svg id="Vouchers" xmlns="http://www.w3.org/2000/svg" width="50" height="35.507" viewBox="0 0 50 35.507">
  <path id="Path_38242" data-name="Path 38242" d="M20.612,5.233H6.28A1.066,1.066,0,0,0,5.233,6.28a1.054,1.054,0,0,0,1.047.966H20.612a1.054,1.054,0,0,0,1.047-.966A1.066,1.066,0,0,0,20.612,5.233Zm-3.865,5.556a.914.914,0,0,0-.644-.242.984.984,0,0,0-.725.242,1.208,1.208,0,0,0,0,1.449.984.984,0,0,0,.725.242.914.914,0,0,0,.644-.242,1.447,1.447,0,0,0,.322-.725A1.447,1.447,0,0,0,16.747,10.789Zm-4.428-.242H6.28a.969.969,0,1,0,0,1.932h6.039a.966.966,0,0,0,0-1.932Zm8.293,16.747H6.28a1.066,1.066,0,0,0-1.047,1.047,1.054,1.054,0,0,0,1.047.966H20.612a1.054,1.054,0,0,0,1.047-.966A1.066,1.066,0,0,0,20.612,27.295ZM24.8,33.9a.984.984,0,0,0-.725-.322,1.139,1.139,0,0,0-.966.966.984.984,0,0,0,.322.725.914.914,0,0,0,.644.242,1.3,1.3,0,0,0,.725-.242,1.3,1.3,0,0,0,.242-.725A.914.914,0,0,0,24.8,33.9ZM45.089,0H4.911A4.88,4.88,0,0,0,0,4.911V30.676a4.863,4.863,0,0,0,4.911,4.831H20.048a.966.966,0,1,0,0-1.932H4.911a2.956,2.956,0,0,1-2.979-2.9V18.76H23.188a3.205,3.205,0,0,0,1.288,1.932,2.86,2.86,0,0,0,.725.322L23.51,23.994a.853.853,0,0,0,.081,1.047.8.8,0,0,0,.966.322l2.335-.564.644,2.335a1.062,1.062,0,0,0,.805.725H28.5a1.068,1.068,0,0,0,.805-.483l4.509-7.729,5.556,9.9a.925.925,0,0,0,.886.483h.081a.945.945,0,0,0,.805-.725l.644-2.335,2.335.644a1.19,1.19,0,0,0,1.047-.322,1.135,1.135,0,0,0,.081-1.127l-2.9-5.072c.081,0,.161.081.242.081a2.9,2.9,0,0,0,1.61-.483,3.013,3.013,0,0,0,1.369-1.932h2.415V30.676a2.887,2.887,0,0,1-2.9,2.9H35.346V28.341a1.054,1.054,0,0,0-.966-1.047,1,1,0,0,0-.966,1.047v5.233H28.341a.969.969,0,1,0,0,1.932H45.089A4.863,4.863,0,0,0,50,30.676V4.911A4.88,4.88,0,0,0,45.089,0ZM25.523,19a.886.886,0,0,1-.483-.805V11.353h0a.925.925,0,0,1,.483-.886.856.856,0,0,1,.966-.081l4.831,2.254a2.21,2.21,0,0,0-.161,1.047v2.093a4.712,4.712,0,0,0,.161,1.047L26.49,19.082A.856.856,0,0,1,25.523,19Zm3.3,5.314-.242-.966a1.252,1.252,0,0,0-.483-.644,1.137,1.137,0,0,0-.725-.081l-.966.242,1.208-2.174L32.126,18.6Zm-1.449-15.7a3.08,3.08,0,0,0-2.9.161,3,3,0,0,0-1.369,2.576v5.475H1.932V4.911A3.025,3.025,0,0,1,4.911,1.932h28.5v8.374a1.021,1.021,0,0,0,.081.483,1.688,1.688,0,0,0-.886.322Zm7.246,8.213h-.483a1.066,1.066,0,0,1-1.047-1.047V13.688a1.066,1.066,0,0,1,1.047-1.047h.483a1.066,1.066,0,0,1,1.047,1.047v2.093A1.066,1.066,0,0,1,34.622,16.828Zm7.729,8.293-.966-.242a.923.923,0,0,0-.805.081,1.027,1.027,0,0,0-.4.564l-.322.966L35.427,18.6a5.548,5.548,0,0,0,.644-.242l3.382,1.61ZM43.156,19a.856.856,0,0,1-.966.081l-4.75-2.254a4.712,4.712,0,0,0,.161-1.047V13.688a4.079,4.079,0,0,0-.161-1.047l4.75-2.254a.856.856,0,0,1,.966.081.925.925,0,0,1,.483.886V18.2h0A.886.886,0,0,1,43.156,19Zm4.831-2.174H45.572V11.353A3,3,0,0,0,44.2,8.776a2.934,2.934,0,0,0-2.818-.161l-5.314,2.5a1.7,1.7,0,0,0-.805-.322c0-.161.081-.322.081-.483V1.932h9.742a2.956,2.956,0,0,1,2.9,2.979Z" fill="#e5a812" fill-rule="evenodd"/>
</svg>
