<?xml version="1.0" encoding="UTF-8"?>
<!DOCTYPE svg PUBLIC "-//W3C//DTD SVG 1.1//EN" "http://www.w3.org/Graphics/SVG/1.1/DTD/svg11.dtd">
<!-- Creator: CorelDRAW X7 -->
<svg xmlns="http://www.w3.org/2000/svg" xml:space="preserve" width="10.539mm" height="14.0546mm" version="1.1" style="shape-rendering:geometricPrecision; text-rendering:geometricPrecision; image-rendering:optimizeQuality; fill-rule:evenodd; clip-rule:evenodd"
viewBox="0 0 4750 6335"
 xmlns:xlink="http://www.w3.org/1999/xlink">
 <defs>
  <style type="text/css">
   <![CDATA[
    .fil0 {fill:#E5A812}
   ]]>
  </style>
 </defs>
 <g id="Layer_x0020_1">
  <metadata id="CorelCorpID_0Corel-Layer"/>
  <path class="fil0" d="M4750 1282c-1,-38 -15,-75 -43,-103l-1136 -1136c0,0 0,0 0,0 -27,-27 -64,-43 -104,-43l-3155 0c-172,0 -312,140 -312,312l0 5711c0,172 140,312 312,312l4126 0c172,0 312,-140 312,-312l0 -4739c0,-1 0,-1 0,-2zm-1135 -776l629 629 -614 0c-8,0 -15,-7 -15,-15l0 -614zm839 5517c0,8 -7,15 -16,15l-4126 0c-8,0 -15,-7 -15,-15l0 -5711c0,-8 7,-15 15,-15l3006 0 0 823c0,172 140,312 312,312l824 0 0 4591 0 0zm-766 -3994l-2625 0c-82,0 -149,67 -149,149 0,82 67,148 149,148l2625 0c82,0 148,-66 148,-148 0,-82 -66,-149 -148,-149zm0 895l-2625 0c-82,0 -149,67 -149,149 0,82 67,148 149,148l2625 0c82,0 148,-66 148,-148 0,-82 -66,-149 -148,-149zm0 895l-2625 0c-82,0 -149,67 -149,149 0,82 67,148 149,148l2625 0c82,0 148,-66 148,-148 0,-82 -66,-149 -148,-149zm-1313 895l-1312 0c-82,0 -149,67 -149,149 0,82 67,148 149,148l1312 0c82,0 148,-66 148,-148 0,-82 -66,-149 -148,-149z"/>
 </g>
</svg>
