<?xml version="1.0" encoding="utf-8"?>
<!-- Generator: Adobe Illustrator 21.0.0, SVG Export Plug-In . SVG Version: 6.00 Build 0)  -->
<!DOCTYPE svg PUBLIC "-//W3C//DTD SVG 1.1//EN" "http://www.w3.org/Graphics/SVG/1.1/DTD/svg11.dtd">
<svg version="1.1" id="Layer_1" xmlns="http://www.w3.org/2000/svg" xmlns:xlink="http://www.w3.org/1999/xlink" x="0px" y="0px"
	 viewBox="0 0 440 100" style="enable-background:new 0 0 440 100;" xml:space="preserve">
<style type="text/css">
	.st0{fill:#3957A7;}
	.st1{fill:#FFFFFF;}
	.st2{fill:#F9A533;}
	.st3{fill:#13457C;}
	.st4{fill:#FBB231;}
	.st5{fill:#EC1C2E;}
	.st6{fill:none;stroke:#FFFFFF;stroke-width:0.22;stroke-miterlimit:2.61;}
	.st7{clip-path:url(#SVGID_2_);}
	.st8{fill:#CF0A2C;}
	.st9{fill:#002856;}
	.st10{fill:#007078;}
</style>
<title>PaymentIcons_Adyen</title>
<path class="st0" d="M15.8,10.8h117.1c2.3,0,4.2,1.9,4.2,4.2v70c0,2.3-1.9,4.2-4.2,4.2H15.8c-2.3,0-4.2-1.9-4.2-4.2V15
	C11.6,12.7,13.5,10.8,15.8,10.8z"/>
<polygon class="st1" points="66.9,69.1 57.8,69.1 63.5,34.2 72.6,34.2 "/>
<path class="st1" d="M50.2,34.2l-8.7,24l-1-5.2l0,0l-3.1-15.7c0,0-0.4-3.2-4.3-3.2H18.8l-0.2,0.6c3.4,0.8,6.6,2.2,9.5,4L36,69.1h9.5
	L60,34.2H50.2z"/>
<path class="st1" d="M121.7,69.1h8.3l-7.3-34.9h-7.3c-1.8-0.1-3.5,0.9-4.2,2.6L97.7,69.1h9.5l1.9-5.2h11.6L121.7,69.1z M111.7,56.8
	l4.8-13.1l2.7,13.1H111.7z"/>
<path class="st1" d="M98.4,42.6l1.3-7.5c-2.6-0.9-5.4-1.5-8.2-1.5c-4.5,0-15.2,2-15.2,11.6c0,9,12.6,9.1,12.6,13.9s-11.3,3.9-15,0.9
	l-1.3,7.8c3.2,1.4,6.7,2.1,10.3,2c6.2,0,15.6-3.2,15.6-12c0-9.1-12.7-9.9-12.7-13.9S94.6,40.4,98.4,42.6z"/>
<path class="st2" d="M40.5,53l-3.1-15.7c0,0-0.4-3.2-4.3-3.2H18.8l-0.2,0.6c4.9,1.3,9.5,3.6,13.5,6.8C35.9,44.6,38.8,48.5,40.5,53z"
	/>
<path class="st3" d="M161.2,10.8h117.1c2.3,0,4.2,1.9,4.2,4.2v70c0,2.3-1.9,4.2-4.2,4.2H161.2c-2.3,0-4.2-1.9-4.2-4.2V15
	C157.1,12.7,158.9,10.8,161.2,10.8z"/>
<polygon class="st4" points="242.3,83.7 244.1,83.7 245.8,83.5 247.5,83.3 249.1,83 250.8,82.7 252.4,82.2 253.9,81.7 255.5,81.1 
	257,80.4 258.4,79.6 259.9,78.8 261.2,77.9 262.5,77 263.8,76 265,74.9 266.2,73.8 267.3,72.7 268.4,71.4 269.4,70.2 270.3,68.8 
	271.2,67.4 272,66 272.8,64.6 273.5,63.1 274.1,61.5 274.6,60 275,58.4 275.4,56.8 275.7,55.1 275.9,53.4 276.1,51.7 276.1,49.9 
	276.1,48.2 275.9,46.5 275.7,44.8 275.4,43.2 275,41.5 274.6,40 274.1,38.4 273.5,36.9 272.8,35.4 272,33.9 271.2,32.5 270.3,31.1 
	269.4,29.8 268.4,28.6 267.3,27.3 266.2,26.2 265,25 263.8,24 262.5,23 261.2,22 259.9,21.2 258.4,20.4 257,19.6 255.5,18.9 
	253.9,18.3 252.4,17.8 250.8,17.4 249.1,17 247.5,16.7 245.8,16.5 244.1,16.3 242.3,16.3 240.6,16.3 238.9,16.5 237.2,16.7 
	235.5,17 233.9,17.4 232.3,17.8 230.8,18.3 229.2,18.9 227.7,19.6 226.3,20.4 224.9,21.2 223.5,22 222.2,23 220.9,24 219.7,25 
	218.5,26.2 217.4,27.3 216.4,28.6 215.4,29.8 214.4,31.1 213.6,32.5 212.8,33.9 212,35.4 211.3,36.9 210.7,38.4 210.2,40 
	209.7,41.5 209.4,43.2 209.1,44.8 208.9,46.5 208.7,48.2 208.7,49.9 208.7,51.7 208.9,53.4 209.1,55.1 209.4,56.8 209.7,58.4 
	210.2,60 210.7,61.5 211.3,63.1 212,64.6 212.8,66 213.6,67.4 214.4,68.8 215.4,70.2 216.4,71.4 217.4,72.7 218.5,73.8 219.7,74.9 
	220.9,76 222.2,77 223.5,77.9 224.9,78.8 226.3,79.6 227.7,80.4 229.2,81.1 230.8,81.7 232.3,82.2 233.9,82.7 235.5,83 237.2,83.3 
	238.9,83.5 240.6,83.7 242.3,83.7 242.3,83.7 "/>
<polygon class="st5" points="197.2,83.7 199,83.7 200.7,83.5 202.4,83.3 204,83 205.6,82.7 207.2,82.2 208.8,81.7 210.4,81.1 
	211.8,80.4 213.3,79.6 214.7,78.8 216.1,77.9 217.4,77 218.6,76 219.9,74.9 221,73.8 222.1,72.7 223.2,71.4 224.2,70.2 225.1,68.8 
	226,67.4 226.8,66 227.6,64.6 228.2,63.1 228.9,61.5 229.4,60 229.8,58.4 230.2,56.8 230.5,55.1 230.7,53.4 230.8,51.7 230.9,49.9 
	230.8,48.2 230.7,46.5 230.5,44.8 230.2,43.2 229.8,41.5 229.4,40 228.9,38.4 228.2,36.9 227.6,35.4 226.8,33.9 226,32.5 
	225.1,31.1 224.2,29.8 223.2,28.6 222.1,27.3 221,26.2 219.9,25 218.6,24 217.4,23 216.1,22 214.7,21.2 213.3,20.4 211.8,19.6 
	210.4,18.9 208.8,18.3 207.2,17.8 205.6,17.4 204,17 202.4,16.7 200.7,16.5 199,16.3 197.2,16.3 195.5,16.3 193.8,16.5 192.1,16.7 
	190.4,17 188.8,17.4 187.2,17.8 185.6,18.3 184.1,18.9 182.6,19.6 181.1,20.4 179.7,21.2 178.4,22 177,23 175.8,24 174.5,25 
	173.4,26.2 172.2,27.3 171.2,28.6 170.2,29.8 169.2,31.1 168.4,32.5 167.5,33.9 166.8,35.4 166.1,36.9 165.5,38.4 165,40 
	164.5,41.5 164.1,43.2 163.9,44.8 163.6,46.5 163.5,48.2 163.5,49.9 163.5,51.7 163.6,53.4 163.9,55.1 164.1,56.8 164.5,58.4 
	165,60 165.5,61.5 166.1,63.1 166.8,64.6 167.5,66 168.4,67.4 169.2,68.8 170.2,70.2 171.2,71.4 172.2,72.7 173.4,73.8 174.5,74.9 
	175.8,76 177,77 178.4,77.9 179.7,78.8 181.1,79.6 182.6,80.4 184.1,81.1 185.6,81.7 187.2,82.2 188.8,82.7 190.4,83 192.1,83.3 
	193.8,83.5 195.5,83.7 197.2,83.7 197.2,83.7 "/>
<polygon class="st4" points="215.8,29.2 233.8,29.2 233.8,27.4 217.4,27.4 215.8,29.2 215.8,29.2 "/>
<polygon class="st4" points="213.2,33.3 233.8,33.3 233.8,31.5 214.2,31.5 213.2,33.3 213.2,33.3 "/>
<polygon class="st4" points="211.1,37.3 233.8,37.3 233.8,35.5 211.9,35.5 211.1,37.3 211.1,37.3 "/>
<polygon class="st4" points="209.8,41.4 233.8,41.4 233.8,39.6 210.4,39.6 209.8,41.4 209.8,41.4 "/>
<polygon class="st4" points="210.6,61.1 233.8,61.1 233.8,59.3 210,59.3 210.6,61.1 210.6,61.1 "/>
<polygon class="st4" points="212.3,65.2 233.8,65.2 233.8,63.3 211.4,63.3 212.3,65.2 212.3,65.2 "/>
<polygon class="st4" points="214.7,69.2 233.8,69.2 233.8,67.4 213.6,67.4 214.7,69.2 214.7,69.2 "/>
<polygon class="st4" points="218,73.3 233.8,73.3 233.8,71.4 216.4,71.4 218,73.3 218,73.3 "/>
<polygon class="st4" points="209,45.5 233.8,45.5 233.8,43.7 209.3,43.7 209,45.5 209,45.5 "/>
<polygon class="st4" points="224.1,57 233.5,57 233.5,55.2 224.4,55.2 224.1,57 224.1,57 "/>
<polygon class="st4" points="224.8,53 233.5,53 233.5,51.1 225.2,51.1 224.8,53 224.8,53 "/>
<polygon class="st4" points="208.4,51.1 210.8,51.1 210.8,53 208.5,53 208.4,51.1 208.4,51.1 "/>
<polygon class="st1" points="203.8,48.9 203.6,48.9 203.4,48.9 203.3,48.9 203.1,48.8 203,48.8 202.9,48.8 202.7,48.8 202.6,48.7 
	202.4,48.7 202.2,48.7 202,48.7 201.8,48.7 201.6,48.7 201.3,48.7 201,48.7 200.7,48.7 200.4,48.8 200.2,48.8 200,48.9 199.9,49 
	199.7,49 199.6,49.1 199.4,49.2 199.3,49.3 199.3,49.5 199.2,49.6 199.2,49.7 199.2,49.9 199.2,50 199.3,50.2 199.4,50.3 
	199.5,50.5 199.7,50.7 200,50.8 200.3,51 200.6,51.1 201,51.2 201.4,51.3 201.8,51.5 202.1,51.6 202.5,51.8 202.8,52.1 203.1,52.3 
	203.3,52.7 203.5,53.1 203.6,53.7 203.6,54.3 203.6,55 203.5,55.5 203.4,56 203.2,56.4 203,56.8 202.7,57.1 202.4,57.4 202.1,57.7 
	201.7,57.9 201.4,58 201,58.2 200.6,58.3 200.2,58.4 199.8,58.5 199.4,58.5 199.1,58.5 198.7,58.5 198.2,58.5 197.8,58.5 
	197.4,58.5 197,58.5 196.7,58.5 196.4,58.5 196.1,58.4 195.8,58.4 195.6,58.4 195.4,58.3 195.2,58.3 195,58.2 194.8,58.2 
	194.6,58.1 194.4,58.1 194.2,58 194.7,55.5 194.8,55.5 194.9,55.5 195.1,55.6 195.3,55.6 195.5,55.7 195.7,55.7 196,55.8 
	196.3,55.8 196.5,55.9 196.8,55.9 197.1,56 197.5,56 197.8,56 198.1,56 198.4,56 198.8,56 199.1,55.9 199.4,55.8 199.6,55.7 
	199.7,55.6 199.9,55.4 199.9,55.2 200,55 200,54.9 200.1,54.5 200,54.2 199.8,54 199.5,53.8 199.1,53.7 198.8,53.5 198.3,53.3 
	197.9,53.2 197.4,52.9 197,52.7 196.6,52.4 196.2,52 195.9,51.6 195.7,51.1 195.6,50.5 195.6,49.8 195.7,49.3 195.8,48.9 
	195.9,48.5 196,48.2 196.2,47.8 196.4,47.5 196.6,47.2 196.9,47 197.3,46.8 197.6,46.6 198,46.4 198.5,46.3 199,46.2 199.6,46.1 
	200.2,46.1 200.8,46 201.3,46 201.6,46.1 202,46.1 202.3,46.1 202.6,46.1 202.9,46.1 203.1,46.2 203.3,46.2 203.5,46.2 203.6,46.2 
	203.8,46.3 203.9,46.3 204,46.3 204.1,46.3 204.2,46.3 204.3,46.3 203.8,48.9 203.8,48.9 "/>
<polyline class="st6" points="203.8,48.9 203.8,48.9 203.6,48.9 203.4,48.9 203.3,48.9 203.1,48.8 203,48.8 202.9,48.8 202.7,48.8 
	202.6,48.7 202.4,48.7 202.2,48.7 202,48.7 201.8,48.7 201.6,48.7 201.3,48.7 201,48.7 200.7,48.7 200.7,48.7 200.4,48.8 
	200.2,48.8 200,48.9 199.9,49 199.7,49 199.6,49.1 199.4,49.2 199.3,49.3 199.3,49.5 199.2,49.6 199.2,49.7 199.2,49.9 199.2,50 
	199.3,50.2 199.4,50.3 199.5,50.5 199.5,50.5 199.7,50.7 200,50.8 200.3,51 200.6,51.1 201,51.2 201.4,51.3 201.8,51.5 202.1,51.6 
	202.5,51.8 202.8,52.1 203.1,52.3 203.3,52.7 203.5,53.1 203.6,53.7 203.6,54.3 203.6,55 203.6,55 203.5,55.5 203.4,56 203.2,56.4 
	203,56.8 202.7,57.1 202.4,57.4 202.1,57.7 201.7,57.9 201.4,58 201,58.2 200.6,58.3 200.2,58.4 199.8,58.5 199.4,58.5 199.1,58.5 
	198.7,58.5 198.7,58.5 198.2,58.5 197.8,58.5 197.4,58.5 197,58.5 196.7,58.5 196.4,58.5 196.1,58.4 195.8,58.4 195.6,58.4 
	195.4,58.3 195.2,58.3 195,58.2 194.8,58.2 194.6,58.1 194.4,58.1 194.2,58 194.7,55.5 194.7,55.5 194.8,55.5 194.9,55.5 
	195.1,55.6 195.3,55.6 195.5,55.7 195.7,55.7 196,55.8 196.3,55.8 196.5,55.9 196.8,55.9 197.1,56 197.5,56 197.8,56 198.1,56 
	198.4,56 198.8,56 198.8,56 199.1,55.9 199.4,55.8 199.6,55.7 199.7,55.6 199.9,55.4 199.9,55.2 200,55 200,54.9 200,54.9 
	200.1,54.5 200,54.2 199.8,54 199.5,53.8 199.1,53.7 198.8,53.5 198.3,53.3 197.9,53.2 197.4,52.9 197,52.7 196.6,52.4 196.2,52 
	195.9,51.6 195.7,51.1 195.6,50.5 195.6,49.8 195.6,49.8 195.7,49.3 195.8,48.9 195.9,48.5 196,48.2 196.2,47.8 196.4,47.5 
	196.6,47.2 196.9,47 197.3,46.8 197.6,46.6 198,46.4 198.5,46.3 199,46.2 199.6,46.1 200.2,46.1 200.8,46 200.8,46 201.3,46 
	201.6,46.1 202,46.1 202.3,46.1 202.6,46.1 202.9,46.1 203.1,46.2 203.3,46.2 203.5,46.2 203.6,46.2 203.8,46.3 203.9,46.3 
	204,46.3 204.1,46.3 204.2,46.3 204.3,46.3 203.8,48.9 "/>
<polygon class="st1" points="206.5,43.5 209.6,43.5 209.1,46.3 211,46.3 210.6,48.9 208.6,48.8 207.5,55.2 207.5,55.4 207.6,55.6 
	207.7,55.7 207.8,55.8 208.1,55.9 208.3,56 208.5,56 208.8,56.1 209.1,56 209.3,56 209.5,56 209.7,55.9 209.8,55.9 209.9,55.9 
	210,55.8 210,55.8 209.6,58 209.5,58 209.4,58 209.4,58.1 209.3,58.1 209.2,58.2 209.1,58.2 209,58.2 208.9,58.3 208.8,58.3 
	208.7,58.3 208.6,58.3 208.4,58.4 208.3,58.4 208.1,58.4 207.9,58.4 207.7,58.5 206.9,58.5 206.4,58.4 206,58.4 205.6,58.3 
	205.3,58.2 205.1,58.1 204.9,58 204.7,57.9 204.5,57.7 204.4,57.6 204.3,57.4 204.3,57.2 204.2,57 204.2,56.7 204.2,56.5 
	204.2,56.2 204.3,55.9 206.5,43.5 206.5,43.5 "/>
<polyline class="st6" points="206.5,43.5 209.6,43.5 209.1,46.3 211,46.3 210.6,48.9 208.6,48.8 207.5,55.2 207.5,55.2 207.5,55.4 
	207.6,55.6 207.7,55.7 207.8,55.8 208.1,55.9 208.3,56 208.5,56 208.8,56.1 208.8,56.1 209.1,56 209.3,56 209.5,56 209.7,55.9 
	209.8,55.9 209.9,55.9 210,55.8 210,55.8 209.6,58 209.6,58 209.5,58 209.4,58 209.4,58.1 209.3,58.1 209.2,58.2 209.1,58.2 
	209,58.2 208.9,58.3 208.8,58.3 208.7,58.3 208.6,58.3 208.4,58.4 208.3,58.4 208.1,58.4 207.9,58.4 207.7,58.5 206.9,58.5 
	206.9,58.5 206.4,58.4 206,58.4 205.6,58.3 205.3,58.2 205.1,58.1 204.9,58 204.7,57.9 204.5,57.7 204.4,57.6 204.3,57.4 
	204.3,57.2 204.2,57 204.2,56.7 204.2,56.5 204.2,56.2 204.3,55.9 206.5,43.5 "/>
<polyline class="st6" points="213.6,53.2 213.6,53.2 213.5,53.3 213.5,53.5 213.5,53.8 213.6,54 213.7,54.2 213.8,54.4 213.9,54.6 
	214,54.8 214.2,55 214.3,55.2 214.5,55.3 214.7,55.5 214.9,55.6 215.2,55.7 215.4,55.8 215.6,55.8 215.6,55.8 215.9,55.9 
	216.2,55.9 216.5,55.9 216.8,56 217.1,56 217.4,56 217.7,56 218,55.9 218.3,55.9 218.6,55.8 218.9,55.8 219.2,55.7 219.6,55.5 
	219.9,55.4 220.2,55.2 220.5,55 220.1,57.8 220.1,57.8 219.9,57.9 219.7,58 219.5,58.1 219.4,58.2 219.2,58.2 219,58.3 218.8,58.3 
	218.6,58.3 218.4,58.4 218.2,58.4 217.9,58.4 217.7,58.4 217.4,58.5 217.1,58.5 216.7,58.5 216.4,58.5 216.4,58.5 215.8,58.5 
	215.2,58.4 214.7,58.3 214.1,58.2 213.5,58 213,57.8 212.5,57.5 212,57.2 211.6,56.8 211.2,56.3 210.9,55.8 210.6,55.2 210.4,54.5 
	210.3,53.8 210.2,52.9 210.3,52 210.3,52 210.3,51.6 210.4,51.2 210.5,50.8 210.6,50.3 210.8,49.8 211,49.3 211.3,48.8 211.6,48.3 
	211.9,47.9 212.4,47.5 212.9,47.1 213.4,46.7 214.1,46.4 214.9,46.2 215.7,46.1 216.6,46 216.6,46 217,46.1 217.5,46.1 218,46.2 
	218.4,46.3 218.9,46.5 219.3,46.7 219.7,47 220.1,47.3 220.5,47.7 220.7,48.1 221,48.6 221.1,49.2 221.2,49.9 221.2,50.7 
	221.1,51.5 221,52.5 220.9,53.2 212.6,53.2 213.2,51 218.1,51 218.1,51 218.2,50.7 218.1,50.4 218.1,50.2 218.1,49.9 218,49.7 
	217.9,49.5 217.8,49.3 217.7,49.2 217.6,49 217.4,48.9 217.2,48.8 217.1,48.7 216.9,48.7 216.7,48.6 216.5,48.6 216.3,48.6 
	216.3,48.6 216.1,48.6 215.9,48.6 215.7,48.7 215.5,48.7 215.3,48.8 215.1,48.9 215,49 214.8,49.2 214.7,49.3 214.5,49.5 
	214.4,49.7 214.3,49.9 214.2,50.1 214.1,50.3 214.1,50.5 214,50.8 213.6,53.2 "/>
<polygon class="st1" points="240.7,47 240.5,46.9 240.4,46.8 240.2,46.7 240.1,46.7 239.9,46.6 239.7,46.5 239.5,46.5 239.3,46.4 
	239.1,46.3 238.9,46.3 238.6,46.2 238.4,46.2 238.1,46.2 237.9,46.2 237.6,46.2 237.3,46.2 237,46.2 236.7,46.2 236.4,46.2 
	236.1,46.3 235.8,46.4 235.4,46.5 235.1,46.7 234.8,46.9 234.5,47.1 234.2,47.4 233.9,47.8 233.7,48.2 233.4,48.7 233.2,49.3 
	233,49.9 232.8,50.6 232.7,51 232.7,51.4 232.6,51.8 232.6,52.2 232.7,52.6 232.8,53 232.9,53.3 233,53.7 233.2,54 233.4,54.2 
	233.6,54.5 233.9,54.8 234.2,55 234.5,55.1 234.9,55.3 235.4,55.4 235.5,55.4 235.7,55.4 235.9,55.5 236.1,55.5 236.4,55.5 
	236.6,55.5 236.9,55.5 237.2,55.5 237.5,55.5 237.8,55.4 238.1,55.3 238.3,55.2 238.6,55.1 238.9,55 239.1,54.8 239.4,54.6 
	238.8,57.6 238.8,57.7 238.7,57.7 238.6,57.8 238.5,57.9 238.4,58 238.2,58 238.1,58.1 237.8,58.2 237.6,58.3 237.3,58.3 
	236.9,58.4 236.5,58.4 236.1,58.4 235.6,58.5 235,58.4 234.4,58.4 233.9,58.3 233.3,58.2 232.8,58.1 232.3,57.8 231.8,57.6 
	231.3,57.2 230.9,56.8 230.4,56.4 230.1,55.9 229.7,55.3 229.5,54.7 229.3,54 229.1,53.2 229.1,52.4 229.1,51.5 229.2,50.6 
	229.3,50.1 229.4,49.6 229.5,49.2 229.6,48.8 229.8,48.4 229.9,48 230.1,47.6 230.2,47.3 230.4,46.9 230.6,46.6 230.8,46.3 231,46 
	231.2,45.7 231.4,45.4 231.6,45.2 231.9,44.9 232.1,44.7 232.4,44.5 232.7,44.3 232.9,44.1 233.2,43.9 233.6,43.8 233.9,43.6 
	234.2,43.5 234.6,43.4 234.9,43.3 235.3,43.2 235.7,43.2 236,43.1 236.4,43.1 236.9,43 237.3,43 237.7,43 238,43.1 238.4,43.1 
	238.7,43.1 239,43.2 239.3,43.2 239.6,43.3 239.9,43.4 240.1,43.5 240.4,43.5 240.6,43.6 240.8,43.7 240.9,43.7 241.1,43.8 
	241.2,43.8 241.2,43.8 240.7,47 240.7,47 "/>
<polyline class="st6" points="240.7,47 240.7,47 240.5,46.9 240.4,46.8 240.2,46.7 240.1,46.7 239.9,46.6 239.7,46.5 239.5,46.5 
	239.3,46.4 239.1,46.3 238.9,46.3 238.6,46.2 238.4,46.2 238.1,46.2 237.9,46.2 237.6,46.2 237.3,46.2 237.3,46.2 237,46.2 
	236.7,46.2 236.4,46.2 236.1,46.3 235.8,46.4 235.4,46.5 235.1,46.7 234.8,46.9 234.5,47.1 234.2,47.4 233.9,47.8 233.7,48.2 
	233.4,48.7 233.2,49.3 233,49.9 232.8,50.6 232.8,50.6 232.7,51 232.7,51.4 232.6,51.8 232.6,52.2 232.7,52.6 232.8,53 232.9,53.3 
	233,53.7 233.2,54 233.4,54.2 233.6,54.5 233.9,54.8 234.2,55 234.5,55.1 234.9,55.3 235.4,55.4 235.4,55.4 235.5,55.4 235.7,55.4 
	235.9,55.5 236.1,55.5 236.4,55.5 236.6,55.5 236.9,55.5 237.2,55.5 237.5,55.5 237.8,55.4 238.1,55.3 238.3,55.2 238.6,55.1 
	238.9,55 239.1,54.8 239.4,54.6 238.8,57.6 238.8,57.6 238.8,57.7 238.7,57.7 238.6,57.8 238.5,57.9 238.4,58 238.2,58 238.1,58.1 
	237.8,58.2 237.6,58.3 237.3,58.3 236.9,58.4 236.5,58.4 236.1,58.4 235.6,58.5 235,58.4 234.4,58.4 234.4,58.4 233.9,58.3 
	233.3,58.2 232.8,58.1 232.3,57.8 231.8,57.6 231.3,57.2 230.9,56.8 230.4,56.4 230.1,55.9 229.7,55.3 229.5,54.7 229.3,54 
	229.1,53.2 229.1,52.4 229.1,51.5 229.2,50.6 229.2,50.6 229.3,50.1 229.4,49.6 229.5,49.2 229.6,48.8 229.8,48.4 229.9,48 
	230.1,47.6 230.2,47.3 230.4,46.9 230.6,46.6 230.8,46.3 231,46 231.2,45.7 231.4,45.4 231.6,45.2 231.9,44.9 232.1,44.7 
	232.4,44.5 232.7,44.3 232.9,44.1 233.2,43.9 233.6,43.8 233.9,43.6 234.2,43.5 234.6,43.4 234.9,43.3 235.3,43.2 235.7,43.2 
	236,43.1 236.4,43.1 236.9,43 237.3,43 237.3,43 237.7,43 238,43.1 238.4,43.1 238.7,43.1 239,43.2 239.3,43.2 239.6,43.3 
	239.9,43.4 240.1,43.5 240.4,43.5 240.6,43.6 240.8,43.7 240.9,43.7 241.1,43.8 241.2,43.8 241.2,43.8 240.7,47 "/>
<polygon class="st1" points="268.7,58.5 265.5,58.5 265.8,57.2 265.8,57.1 265.6,57.3 265.4,57.5 265.2,57.7 265,57.9 264.8,58 
	264.6,58.1 264.4,58.2 264.1,58.3 263.9,58.4 263.7,58.5 263.5,58.5 263.3,58.6 263,58.6 262.8,58.6 262.6,58.6 262.4,58.6 
	261.8,58.6 261.2,58.5 260.7,58.3 260.3,58 259.9,57.7 259.5,57.3 259.2,56.9 258.9,56.4 258.7,55.9 258.5,55.3 258.4,54.8 
	258.3,54.2 258.2,53.6 258.3,53 258.3,52.5 258.4,51.9 258.6,51.2 258.8,50.6 259,50 259.3,49.5 259.6,48.9 260,48.5 260.3,48.1 
	260.7,47.7 261.1,47.4 261.5,47.1 261.9,46.8 262.4,46.6 262.8,46.5 263.3,46.4 263.7,46.3 264.2,46.3 264.5,46.3 264.9,46.3 
	265.1,46.4 265.4,46.5 265.7,46.6 265.9,46.7 266.1,46.8 266.3,46.9 266.5,47 266.7,47.2 266.8,47.3 267,47.5 267.1,47.6 
	267.2,47.8 267.3,47.9 267.4,48.1 267.4,48.1 268.1,43.6 271.2,43.6 268.7,58.5 268.7,58.5 "/>
<polyline class="st6" points="268.7,58.5 265.5,58.5 265.8,57.2 265.8,57.1 265.8,57.1 265.6,57.3 265.4,57.5 265.2,57.7 265,57.9 
	264.8,58 264.6,58.1 264.4,58.2 264.1,58.3 263.9,58.4 263.7,58.5 263.5,58.5 263.3,58.6 263,58.6 262.8,58.6 262.6,58.6 
	262.4,58.6 262.4,58.6 261.8,58.6 261.2,58.5 260.7,58.3 260.3,58 259.9,57.7 259.5,57.3 259.2,56.9 258.9,56.4 258.7,55.9 
	258.5,55.3 258.4,54.8 258.3,54.2 258.2,53.6 258.3,53 258.3,52.5 258.4,51.9 258.4,51.9 258.6,51.2 258.8,50.6 259,50 259.3,49.5 
	259.6,48.9 260,48.5 260.3,48.1 260.7,47.7 261.1,47.4 261.5,47.1 261.9,46.8 262.4,46.6 262.8,46.5 263.3,46.4 263.7,46.3 
	264.2,46.3 264.2,46.3 264.5,46.3 264.9,46.3 265.1,46.4 265.4,46.5 265.7,46.6 265.9,46.7 266.1,46.8 266.3,46.9 266.5,47 
	266.7,47.2 266.8,47.3 267,47.5 267.1,47.6 267.2,47.8 267.3,47.9 267.4,48.1 267.4,48.1 268.1,43.6 271.2,43.6 268.7,58.5 "/>
<polygon class="st4" points="263.5,55.7 263.8,55.7 264.1,55.6 264.4,55.5 264.7,55.4 264.9,55.3 265.1,55.1 265.4,54.9 265.5,54.7 
	265.7,54.5 265.9,54.2 266,54 266.1,53.7 266.3,53.4 266.4,53.1 266.4,52.8 266.5,52.5 266.5,52.2 266.6,51.9 266.6,51.5 
	266.6,51.2 266.5,50.9 266.5,50.7 266.4,50.4 266.3,50.1 266.2,49.9 266.1,49.7 265.9,49.5 265.8,49.3 265.6,49.2 265.4,49.1 
	265.1,49 264.9,49 264.6,49 264.3,49.1 264,49.2 263.8,49.3 263.5,49.5 263.3,49.6 263.1,49.8 262.9,50 262.8,50.3 262.6,50.5 
	262.5,50.8 262.3,51.1 262.2,51.4 262.1,51.7 262,52.1 262,52.4 261.9,52.9 261.9,53.4 262,54 262.2,54.5 262.4,55 262.7,55.4 
	263.1,55.6 263.5,55.7 263.5,55.7 "/>
<polygon class="st1" points="193.7,55.9 193.2,58.5 190.4,58.5 190.4,58 190.5,57.6 190.6,57.3 190.6,57.1 190.4,57.3 190.2,57.5 
	190,57.6 189.8,57.8 189.5,58 189.2,58.1 188.9,58.2 188.6,58.3 188.3,58.4 188,58.5 187.6,58.6 187.3,58.6 187,58.7 186.6,58.7 
	186.3,58.6 186,58.6 185.6,58.5 185.3,58.4 184.9,58.2 184.7,58 184.4,57.9 184.2,57.7 184,57.4 183.8,57.2 183.7,57 183.6,56.7 
	183.5,56.5 183.4,56.2 183.4,56 183.4,55.7 183.3,55.5 183.3,55.2 183.4,54.8 183.4,54.3 183.5,53.9 183.7,53.5 183.9,53.2 
	184.1,52.9 184.3,52.5 184.6,52.3 184.9,52 185.2,51.8 185.5,51.5 185.9,51.4 186.2,51.2 186.6,51.1 187,51 187.4,50.9 187.4,50.9 
	187.5,50.9 187.6,50.9 187.7,50.9 187.8,50.8 188,50.8 188.1,50.8 188.3,50.8 188.5,50.8 188.7,50.8 188.9,50.7 189.1,50.7 
	189.3,50.7 189.5,50.7 189.6,50.7 189.7,50.7 190,50.7 190.3,50.7 190.5,50.7 190.8,50.7 191,50.7 191.1,50.7 191.2,50.7 
	191.3,50.7 191.3,50.7 191.4,50.5 191.4,50.2 191.5,50 191.4,49.8 191.3,49.5 191.2,49.3 191,49.1 190.8,49 190.5,48.9 190.3,48.8 
	190,48.8 189.6,48.8 189.3,48.8 189,48.8 188.6,48.8 188.2,48.8 187.9,48.8 187.5,48.9 187.1,48.9 186.8,49 186.5,49 186.2,49.1 
	185.9,49.1 185.6,49.2 185.4,49.3 185.3,49.4 185.2,49.4 186,46.7 186.2,46.6 186.5,46.5 186.7,46.4 187,46.4 187.3,46.3 
	187.6,46.3 187.9,46.2 188.2,46.2 188.5,46.2 188.8,46.2 189.2,46.1 189.5,46.1 189.9,46.1 190.3,46.1 190.7,46.2 191.1,46.2 
	191.4,46.2 191.7,46.2 192.1,46.3 192.4,46.4 192.8,46.6 193.1,46.7 193.5,46.9 193.8,47.1 194.1,47.4 194.3,47.7 194.6,48 
	194.7,48.3 194.8,48.7 194.9,49 194.9,49.5 194.8,49.9 193.7,55.9 193.7,55.9 "/>
<polyline class="st6" points="193.7,55.9 193.2,58.5 190.4,58.5 190.4,58.5 190.4,58 190.5,57.6 190.6,57.3 190.6,57.1 190.6,57.1 
	190.4,57.3 190.2,57.5 190,57.6 189.8,57.8 189.5,58 189.2,58.1 188.9,58.2 188.6,58.3 188.3,58.4 188,58.5 187.6,58.6 187.3,58.6 
	187,58.7 186.6,58.7 186.3,58.6 186,58.6 186,58.6 185.6,58.5 185.3,58.4 184.9,58.2 184.7,58 184.4,57.9 184.2,57.7 184,57.4 
	183.8,57.2 183.7,57 183.6,56.7 183.5,56.5 183.4,56.2 183.4,56 183.4,55.7 183.3,55.5 183.3,55.2 183.3,55.2 183.4,54.8 
	183.4,54.3 183.5,53.9 183.7,53.5 183.9,53.2 184.1,52.9 184.3,52.5 184.6,52.3 184.9,52 185.2,51.8 185.5,51.5 185.9,51.4 
	186.2,51.2 186.6,51.1 187,51 187.4,50.9 187.4,50.9 187.4,50.9 187.5,50.9 187.6,50.9 187.7,50.9 187.8,50.8 188,50.8 188.1,50.8 
	188.3,50.8 188.5,50.8 188.7,50.8 188.9,50.7 189.1,50.7 189.3,50.7 189.5,50.7 189.6,50.7 189.7,50.7 189.7,50.7 190,50.7 
	190.3,50.7 190.5,50.7 190.8,50.7 191,50.7 191.1,50.7 191.2,50.7 191.3,50.7 191.3,50.7 191.3,50.7 191.4,50.5 191.4,50.2 
	191.5,50 191.5,50 191.4,49.8 191.3,49.5 191.2,49.3 191,49.1 190.8,49 190.5,48.9 190.3,48.8 190,48.8 190,48.8 189.6,48.8 
	189.3,48.8 189,48.8 188.6,48.8 188.2,48.8 187.9,48.8 187.5,48.9 187.1,48.9 186.8,49 186.5,49 186.2,49.1 185.9,49.1 185.6,49.2 
	185.4,49.3 185.3,49.4 185.2,49.4 186,46.7 186,46.7 186.2,46.6 186.5,46.5 186.7,46.4 187,46.4 187.3,46.3 187.6,46.3 187.9,46.2 
	188.2,46.2 188.5,46.2 188.8,46.2 189.2,46.1 189.5,46.1 189.9,46.1 190.3,46.1 190.7,46.2 191.1,46.2 191.1,46.2 191.4,46.2 
	191.7,46.2 192.1,46.3 192.4,46.4 192.8,46.6 193.1,46.7 193.5,46.9 193.8,47.1 194.1,47.4 194.3,47.7 194.6,48 194.7,48.3 
	194.8,48.7 194.9,49 194.9,49.5 194.8,49.9 193.7,55.9 "/>
<polygon class="st5" points="190.9,53 190.9,52.9 190.9,52.9 190.8,52.8 190.7,52.8 190.6,52.8 190.4,52.8 190.3,52.8 190.1,52.8 
	189.9,52.8 189.7,52.8 189.5,52.8 189.4,52.8 189.2,52.9 189,52.9 188.9,52.9 188.8,53 188.7,53 188.6,53 188.5,53.1 188.3,53.1 
	188.2,53.2 188.1,53.3 187.9,53.4 187.7,53.5 187.6,53.6 187.4,53.7 187.3,53.8 187.2,54 187.1,54.1 187,54.3 186.9,54.4 
	186.9,54.6 186.9,55 186.9,55.3 187,55.5 187.2,55.7 187.4,55.8 187.6,55.9 187.7,55.9 187.9,55.9 188.2,55.9 188.6,55.9 
	188.9,55.8 189.1,55.8 189.3,55.7 189.6,55.6 189.8,55.5 189.9,55.4 190.1,55.3 190.2,55.1 190.3,55 190.4,54.9 190.5,54.7 
	190.6,54.6 190.6,54.5 190.6,54.3 190.7,54 190.8,53.6 190.9,53.3 190.9,53 190.9,53 "/>
<polygon class="st1" points="169.8,58.5 166.7,58.5 169.2,43.5 174.6,43.5 175.1,52.4 178.9,43.5 184.5,43.5 181.8,58.5 178.8,58.5 
	180.7,47.3 180.6,47.3 175.9,58.5 172.5,58.5 172.4,58 172.4,56.8 172.2,55 172.1,53 172,50.9 171.9,49.2 171.8,47.9 171.8,47.3 
	171.8,47.3 171.7,47.3 171.6,47.3 171.6,47.3 169.8,58.5 169.8,58.5 "/>
<polyline class="st6" points="169.8,58.5 166.7,58.5 169.2,43.5 174.6,43.5 175.1,52.4 178.9,43.5 184.5,43.5 181.8,58.5 
	178.8,58.5 180.7,47.3 180.6,47.3 175.9,58.5 172.5,58.5 172.5,58.5 172.4,58 172.4,56.8 172.2,55 172.1,53 172,50.9 171.9,49.2 
	171.8,47.9 171.8,47.3 171.8,47.3 171.8,47.3 171.7,47.3 171.6,47.3 171.6,47.3 169.8,58.5 "/>
<polygon class="st1" points="250.1,55.9 249.7,58.5 246.8,58.5 246.8,58 246.8,57.6 246.8,57.3 246.9,57.2 246.7,57.3 246.5,57.5 
	246.3,57.7 246.1,57.8 245.9,58 245.6,58.1 245.3,58.2 245,58.3 244.7,58.4 244.4,58.5 244.1,58.6 243.8,58.6 243.4,58.7 
	243.1,58.7 242.8,58.6 242.5,58.6 242.1,58.5 241.7,58.4 241.4,58.2 241.1,58 240.9,57.9 240.6,57.7 240.5,57.4 240.3,57.2 
	240.2,57 240.1,56.7 240,56.5 239.9,56.2 239.9,56 239.8,55.7 239.8,55.5 239.8,55.2 239.8,54.8 239.9,54.3 240,53.9 240.2,53.5 
	240.3,53.2 240.6,52.9 240.8,52.5 241.1,52.3 241.4,52 241.6,51.8 242,51.5 242.3,51.4 242.7,51.2 243.1,51.1 243.4,51 243.8,50.9 
	243.8,50.9 243.9,50.9 244,50.9 244.1,50.9 244.2,50.8 244.4,50.8 244.6,50.8 244.8,50.8 244.9,50.8 245.1,50.8 245.4,50.7 
	245.5,50.7 245.7,50.7 245.9,50.7 246,50.7 246.2,50.7 246.4,50.7 246.7,50.7 247,50.7 247.2,50.7 247.4,50.7 247.6,50.7 
	247.7,50.7 247.8,50.7 247.8,50.7 247.8,50.5 247.9,50.2 247.9,50 247.8,49.8 247.8,49.5 247.6,49.3 247.4,49.1 247.2,49 247,48.9 
	246.7,48.8 246.5,48.8 246.1,48.8 245.8,48.8 245.4,48.8 245.1,48.8 244.7,48.8 244.3,48.8 244,48.9 243.6,48.9 243.3,49 243,49 
	242.7,49.1 242.4,49.1 242.1,49.2 241.9,49.3 241.8,49.4 241.6,49.4 242.4,46.7 242.7,46.6 243,46.5 243.2,46.4 243.5,46.4 
	243.8,46.3 244.1,46.3 244.4,46.2 244.7,46.2 245,46.2 245.3,46.2 245.6,46.1 246,46.1 246.4,46.1 246.7,46.1 247.1,46.2 
	247.5,46.2 247.8,46.2 248.1,46.2 248.5,46.3 248.9,46.4 249.2,46.6 249.6,46.7 249.9,46.9 250.2,47.1 250.5,47.4 250.8,47.7 
	251,48 251.2,48.3 251.3,48.7 251.4,49 251.4,49.5 251.3,49.9 250.1,55.9 250.1,55.9 "/>
<polygon class="st1" points="249.7,58.5 249.7,58.5 250.2,56 250.1,55.9 249.6,58.5 249.7,58.4 249.7,58.5 249.7,58.5 249.7,58.5 
	249.7,58.5 249.7,58.5 "/>
<polygon class="st1" points="246.7,58.5 246.8,58.5 249.7,58.5 249.7,58.4 246.8,58.4 246.9,58.5 246.7,58.5 246.7,58.5 246.8,58.5 
	246.7,58.5 246.7,58.5 "/>
<polygon class="st1" points="246.9,57.2 246.8,57.1 246.8,57.3 246.8,57.6 246.8,58 246.7,58.5 246.9,58.5 246.9,58 246.9,57.6 
	246.9,57.3 246.9,57.2 246.8,57.1 246.9,57.2 246.9,57.2 "/>
<polygon class="st1" points="242.5,58.7 242.5,58.7 242.8,58.7 243.1,58.7 243.4,58.7 243.8,58.7 244.1,58.7 244.4,58.6 244.7,58.5 
	245.1,58.4 245.3,58.3 245.6,58.2 245.9,58 246.1,57.9 246.4,57.7 246.6,57.5 246.8,57.4 246.9,57.2 246.8,57.1 246.6,57.3 
	246.5,57.4 246.3,57.6 246.1,57.8 245.8,57.9 245.6,58 245.3,58.2 245,58.3 244.7,58.4 244.4,58.5 244.1,58.5 243.8,58.6 
	243.4,58.6 243.1,58.6 242.8,58.6 242.5,58.5 242.5,58.5 242.5,58.7 242.5,58.7 "/>
<polygon class="st1" points="239.7,55.2 239.7,55.2 239.8,55.5 239.8,55.7 239.8,56 239.9,56.2 239.9,56.5 240,56.8 240.1,57 
	240.2,57.2 240.4,57.5 240.6,57.7 240.8,57.9 241.1,58.1 241.4,58.3 241.7,58.4 242.1,58.5 242.5,58.7 242.5,58.5 242.1,58.4 
	241.8,58.3 241.4,58.2 241.1,58 240.9,57.8 240.7,57.6 240.5,57.4 240.4,57.2 240.2,56.9 240.1,56.7 240.1,56.5 240,56.2 239.9,56 
	239.9,55.7 239.9,55.5 239.9,55.2 239.9,55.2 239.7,55.2 239.7,55.2 "/>
<polygon class="st1" points="243.8,50.8 243.8,50.8 243.4,50.9 243,51 242.7,51.1 242.3,51.3 241.9,51.5 241.6,51.7 241.3,51.9 
	241,52.2 240.7,52.5 240.5,52.8 240.3,53.2 240.1,53.5 239.9,53.9 239.8,54.3 239.8,54.8 239.7,55.2 239.9,55.2 239.9,54.8 
	240,54.3 240.1,54 240.2,53.6 240.4,53.2 240.6,52.9 240.9,52.6 241.1,52.3 241.4,52 241.7,51.8 242,51.6 242.4,51.4 242.7,51.3 
	243.1,51.2 243.4,51 243.8,51 243.8,51 243.8,50.8 243.8,50.8 "/>
<polygon class="st1" points="246.2,50.6 246.2,50.6 246,50.6 245.9,50.6 245.7,50.6 245.5,50.6 245.4,50.7 245.1,50.7 244.9,50.7 
	244.8,50.7 244.6,50.8 244.4,50.8 244.2,50.8 244.1,50.8 244,50.8 243.9,50.8 243.8,50.8 243.8,50.8 243.8,51 243.8,51 243.9,51 
	244,51 244.1,50.9 244.2,50.9 244.4,50.9 244.6,50.9 244.8,50.9 244.9,50.8 245.1,50.8 245.4,50.8 245.5,50.8 245.7,50.8 
	245.9,50.8 246,50.8 246.2,50.8 246.2,50.8 246.2,50.6 246.2,50.6 "/>
<polygon class="st1" points="247.7,50.7 247.8,50.7 247.7,50.7 247.6,50.7 247.4,50.6 247.2,50.6 247,50.6 246.7,50.6 246.4,50.6 
	246.2,50.6 246.2,50.8 246.4,50.8 246.7,50.8 247,50.8 247.2,50.8 247.4,50.8 247.6,50.8 247.7,50.8 247.8,50.8 247.8,50.8 
	247.8,50.8 247.8,50.8 247.8,50.8 247.7,50.7 247.7,50.7 "/>
<polygon class="st1" points="247.8,50 247.8,50 247.8,50.2 247.8,50.4 247.7,50.6 247.7,50.7 247.8,50.8 247.9,50.7 247.9,50.5 
	247.9,50.2 248,50 247.9,50 247.8,50 247.8,50 "/>
<polygon class="st1" points="246.5,48.9 246.5,48.9 246.7,48.9 247,49 247.2,49.1 247.4,49.2 247.5,49.4 247.7,49.5 247.8,49.8 
	247.8,50 247.9,50 247.9,49.7 247.8,49.5 247.6,49.3 247.5,49.1 247.3,48.9 247,48.8 246.7,48.8 246.5,48.7 246.5,48.7 246.5,48.9 
	246.5,48.9 "/>
<polygon class="st1" points="241.6,49.4 241.7,49.5 241.8,49.4 242,49.3 242.1,49.3 242.4,49.2 242.7,49.2 243,49.1 243.3,49 
	243.6,49 244,49 244.3,48.9 244.7,48.9 245.1,48.9 245.4,48.9 245.8,48.9 246.1,48.9 246.5,48.9 246.5,48.7 246.1,48.7 245.8,48.7 
	245.4,48.7 245.1,48.7 244.7,48.7 244.3,48.8 244,48.8 243.6,48.9 243.3,48.9 242.9,49 242.6,49 242.4,49.1 242.1,49.1 241.9,49.2 
	241.7,49.3 241.6,49.4 241.7,49.4 241.6,49.4 241.6,49.4 "/>
<polygon class="st1" points="242.4,46.6 242.4,46.7 241.6,49.4 241.7,49.4 242.5,46.7 242.5,46.8 242.4,46.6 242.4,46.6 242.4,46.7 
	242.4,46.6 242.4,46.6 "/>
<polygon class="st1" points="247.5,46.1 247.5,46.1 247.1,46.1 246.7,46.1 246.4,46.1 246,46.1 245.6,46.1 245.3,46.1 245,46.1 
	244.7,46.1 244.4,46.1 244.1,46.2 243.8,46.2 243.5,46.3 243.2,46.3 242.9,46.4 242.7,46.5 242.4,46.6 242.5,46.8 242.7,46.7 
	243,46.6 243.2,46.5 243.5,46.4 243.8,46.4 244.1,46.3 244.4,46.3 244.7,46.3 245,46.2 245.3,46.2 245.6,46.2 246,46.2 246.4,46.2 
	246.7,46.2 247.1,46.2 247.5,46.2 247.5,46.2 247.5,46.1 247.5,46.1 "/>
<polygon class="st1" points="251.4,50 251.4,50 251.4,49.5 251.4,49 251.4,48.7 251.2,48.3 251.1,47.9 250.8,47.6 250.6,47.3 
	250.3,47.1 249.9,46.9 249.6,46.7 249.2,46.5 248.9,46.4 248.5,46.3 248.2,46.2 247.8,46.1 247.5,46.1 247.5,46.2 247.8,46.3 
	248.1,46.3 248.5,46.4 248.8,46.5 249.2,46.6 249.5,46.8 249.9,47 250.2,47.2 250.5,47.4 250.7,47.7 250.9,48 251.1,48.3 
	251.2,48.7 251.3,49 251.3,49.5 251.2,49.9 251.2,49.9 251.4,50 251.4,50 "/>
<polygon class="st1" points="250.2,56 250.2,56 251.4,50 251.2,49.9 250.1,55.9 250.1,55.9 250.2,56 250.2,56 "/>
<polygon class="st4" points="247.4,53 247.4,52.9 247.3,52.8 247.2,52.8 247.1,52.8 247,52.8 246.8,52.8 246.7,52.8 246.5,52.8 
	246.3,52.8 246.1,52.8 245.9,52.8 245.8,52.9 245.6,52.9 245.5,52.9 245.3,53 245.2,53 245.1,53 245,53 244.9,53 244.8,53.1 
	244.6,53.2 244.5,53.2 244.3,53.3 244.2,53.4 244.1,53.5 243.9,53.7 243.8,53.8 243.6,53.9 243.6,54.1 243.5,54.2 243.4,54.4 
	243.4,54.6 243.4,55 243.4,55.3 243.5,55.5 243.6,55.7 243.8,55.8 244,55.9 244.2,55.9 244.4,55.9 244.7,55.9 245.1,55.9 
	245.4,55.8 245.6,55.8 245.9,55.7 246.1,55.6 246.3,55.5 246.5,55.3 246.6,55.2 246.8,55 246.9,54.9 247,54.8 247.1,54.6 
	247.1,54.5 247.2,54.3 247.2,54.2 247.2,53.9 247.3,53.6 247.4,53.3 247.4,53 247.4,53 "/>
<polygon class="st1" points="270.8,56.9 270.8,56.7 270.9,56.3 271.1,56.1 271.3,55.8 271.5,55.6 271.8,55.5 272.1,55.4 272.4,55.4 
	272.7,55.4 273,55.5 273.3,55.6 273.5,55.8 273.7,56.1 273.9,56.3 274,56.7 274,56.9 273.6,56.9 273.6,56.7 273.6,56.5 273.5,56.2 
	273.3,56 273.1,55.9 272.9,55.8 272.6,55.7 272.4,55.7 272.1,55.7 271.9,55.8 271.7,55.9 271.5,56 271.3,56.2 271.2,56.5 
	271.1,56.7 271.1,56.9 270.8,56.9 270.8,56.9 "/>
<polygon class="st1" points="271.8,56.9 271.8,56.2 272.4,56.2 272.6,56.2 272.7,56.3 272.8,56.3 272.9,56.3 272.9,56.4 273,56.5 
	273,56.6 273,56.6 273,56.7 273,56.8 273,56.9 272.9,56.9 272.4,56.9 272.5,56.9 272.6,56.9 272.6,56.9 272.7,56.8 272.7,56.8 
	272.8,56.8 272.8,56.7 272.8,56.6 272.8,56.6 272.8,56.5 272.7,56.5 272.7,56.5 272.6,56.5 272.6,56.5 272.5,56.5 272.4,56.5 
	272.1,56.5 272.1,56.9 271.8,56.9 271.8,56.9 "/>
<polygon class="st1" points="270.8,56.9 270.8,57 270.8,57.3 270.9,57.6 271.1,57.9 271.3,58.1 271.5,58.3 271.8,58.5 272.1,58.5 
	272.4,58.6 272.7,58.5 273,58.5 273.3,58.3 273.5,58.1 273.7,57.9 273.9,57.6 274,57.3 274,57 274,56.9 273.6,56.9 273.6,57 
	273.6,57.2 273.6,57.5 273.5,57.7 273.3,57.9 273.1,58.1 272.9,58.2 272.6,58.3 272.4,58.3 272.1,58.3 271.9,58.2 271.7,58.1 
	271.5,57.9 271.3,57.7 271.2,57.5 271.1,57.2 271.1,57 271.1,56.9 270.8,56.9 270.8,56.9 "/>
<polygon class="st1" points="271.8,56.9 271.8,57.6 272.1,57.6 272.1,57 272.4,57 272.7,57.6 273,57.6 272.6,57 272.7,57 272.8,57 
	272.8,57 272.9,56.9 272.9,56.9 272.4,56.9 272.4,56.9 272.1,56.9 272.1,56.9 271.8,56.9 271.8,56.9 "/>
<path class="st6" d="M270.8,57L270.8,57v-0.3l0.1-0.3l0.2-0.3l0.2-0.2l0.2-0.2l0.3-0.1l0.3-0.1h0.3l0,0h0.3l0.3,0.1l0.3,0.1l0.2,0.2
	l0.2,0.2l0.2,0.3l0.1,0.3V57l0,0v0.3l-0.1,0.3l-0.2,0.3l-0.2,0.2l-0.2,0.2l-0.3,0.2l-0.3,0.1h-0.3l0,0H272l-0.3-0.1l-0.3-0.2
	l-0.2-0.2l-0.2-0.2l-0.2-0.3l-0.1-0.3V57 M272.1,57.6h-0.3v-1.4h0.8h0.1h0.1h0.1l0.1,0.1v0.1v0.1v0.1l0,0v0.1v0.1v0.1v0.1h-0.1h-0.1
	h-0.1h-0.1l0.3,0.6h-0.2l-0.3-0.6h-0.3v0.6 M272.4,56.7L272.4,56.7h0.1h0.1h0.1h0.1l0,0l0,0v0v-0.1l0,0v-0.1l0,0l0,0l0,0h-0.6V57
	h0.3 M272.4,58.4L272.4,58.4h0.3l0.2-0.1l0.2-0.1l0.2-0.2l0.1-0.2l0.1-0.2l0.1-0.2v-0.3l0,0v-0.3l-0.1-0.2l-0.1-0.2l-0.1-0.2
	l-0.2-0.2l-0.2-0.1l-0.2-0.1h-0.3l0,0h-0.3l-0.2,0.1l-0.2,0.1l-0.2,0.2l-0.1,0.2l-0.1,0.2l-0.1,0.2v0.3l0,0v0.3l0.1,0.2l0.1,0.2
	l0.1,0.2l0.2,0.2l0.2,0.1l0.2,0.1H272.4"/>
<polygon class="st1" points="251,58.5 254.2,58.5 254.2,58.5 255.3,52 255.4,51.8 255.4,51.5 255.5,51.2 255.6,51 255.7,50.8 
	255.9,50.5 256,50.3 256.2,50.1 256.4,49.9 256.6,49.7 256.9,49.5 257.2,49.4 257.5,49.3 257.9,49.2 258.3,49.1 258.7,49.1 
	258.9,49.1 259,49.1 259,49.1 259,49.1 259.5,46.2 259.2,46.2 258.9,46.2 258.6,46.3 258.3,46.4 258.1,46.5 257.8,46.6 257.6,46.7 
	257.4,46.8 257.2,47 257,47.1 256.8,47.3 256.6,47.5 256.5,47.7 256.3,47.9 256.1,48.1 256,48.3 256.3,46.3 253.1,46.3 251,58.5 
	251,58.5 251,58.5 "/>
<polyline class="st6" points="251,58.5 254.2,58.5 254.2,58.5 255.3,52 255.3,52 255.4,51.8 255.4,51.5 255.5,51.2 255.6,51 
	255.7,50.8 255.9,50.5 256,50.3 256.2,50.1 256.4,49.9 256.6,49.7 256.9,49.5 257.2,49.4 257.5,49.3 257.9,49.2 258.3,49.1 
	258.7,49.1 258.7,49.1 258.9,49.1 259,49.1 259,49.1 259,49.1 259.5,46.2 259.5,46.2 259.2,46.2 258.9,46.2 258.6,46.3 258.3,46.4 
	258.1,46.5 257.8,46.6 257.6,46.7 257.4,46.8 257.2,47 257,47.1 256.8,47.3 256.6,47.5 256.5,47.7 256.3,47.9 256.1,48.1 256,48.3 
	256.3,46.3 253.1,46.3 251,58.5 251,58.5 "/>
<polygon class="st1" points="220.9,58.5 224.1,58.5 224.1,58.5 225.2,52 225.3,51.8 225.3,51.5 225.4,51.3 225.5,51 225.6,50.8 
	225.7,50.6 225.8,50.4 226,50.2 226.1,50 226.3,49.9 226.6,49.7 226.9,49.6 227.2,49.5 227.5,49.4 227.9,49.3 228.4,49.3 
	228.4,49.3 228.4,49.3 228.5,49.3 228.6,49.3 228.6,49.3 228.7,49.4 228.7,49.4 228.7,49.4 228.7,49.3 228.8,49.2 228.8,49 
	228.9,48.7 228.9,48.4 229,48.1 229.1,47.8 229.2,47.5 229.3,47.3 229.4,47 229.5,46.8 229.7,46.6 229.8,46.5 229.8,46.3 
	229.9,46.3 229.9,46.2 229.9,46.2 229.9,46.2 229.8,46.2 229.7,46.2 229.6,46.2 229.6,46.2 229.5,46.2 229.4,46.2 229,46.2 
	228.7,46.2 228.4,46.3 228.1,46.3 227.9,46.4 227.6,46.5 227.4,46.7 227.2,46.8 227,47 226.9,47.1 226.7,47.3 226.5,47.5 
	226.3,47.7 226.2,47.9 226,48.1 225.8,48.3 226.2,46.3 223,46.3 220.9,58.5 220.9,58.5 220.9,58.5 "/>
<polyline class="st6" points="220.9,58.5 224.1,58.5 224.1,58.5 225.2,52 225.2,52 225.3,51.8 225.3,51.5 225.4,51.3 225.5,51 
	225.6,50.8 225.7,50.6 225.8,50.4 226,50.2 226.1,50 226.3,49.9 226.6,49.7 226.9,49.6 227.2,49.5 227.5,49.4 227.9,49.3 
	228.4,49.3 228.4,49.3 228.4,49.3 228.4,49.3 228.5,49.3 228.6,49.3 228.6,49.3 228.7,49.4 228.7,49.4 228.7,49.4 228.7,49.4 
	228.7,49.3 228.8,49.2 228.8,49 228.9,48.7 228.9,48.4 229,48.1 229.1,47.8 229.2,47.5 229.2,47.5 229.3,47.3 229.4,47 229.5,46.8 
	229.7,46.6 229.8,46.5 229.8,46.3 229.9,46.3 229.9,46.2 229.9,46.2 229.9,46.2 229.9,46.2 229.8,46.2 229.7,46.2 229.6,46.2 
	229.6,46.2 229.5,46.2 229.4,46.2 229.4,46.2 229,46.2 228.7,46.2 228.4,46.3 228.1,46.3 227.9,46.4 227.6,46.5 227.4,46.7 
	227.2,46.8 227,47 226.9,47.1 226.7,47.3 226.5,47.5 226.3,47.7 226.2,47.9 226,48.1 225.8,48.3 226.2,46.3 223,46.3 220.9,58.5 
	220.9,58.5 "/>
<polygon class="st4" points="270.8,70.4 270.8,70.4 270.9,70.1 271.1,69.8 271.3,69.6 271.5,69.4 271.8,69.3 272.1,69.2 272.4,69.2 
	272.7,69.2 273,69.3 273.3,69.4 273.5,69.6 273.7,69.8 273.9,70.1 274,70.4 274,70.4 273.6,70.4 273.6,70.2 273.5,70 273.3,69.8 
	273.1,69.6 272.9,69.5 272.6,69.4 272.4,69.4 272.1,69.4 271.9,69.5 271.7,69.6 271.5,69.8 271.3,70 271.2,70.2 271.1,70.4 
	270.8,70.4 270.8,70.4 "/>
<polygon class="st4" points="271.8,70.4 271.8,70 272.4,70 272.6,70 272.7,70.1 272.8,70.1 272.9,70.1 272.9,70.2 273,70.2 
	273,70.3 273,70.4 272.8,70.4 272.8,70.4 272.8,70.3 272.8,70.3 272.7,70.2 272.7,70.2 272.6,70.2 272.6,70.2 272.5,70.2 
	272.4,70.2 272.1,70.2 272.1,70.4 271.8,70.4 271.8,70.4 "/>
<polygon class="st4" points="270.8,70.7 270.8,70.4 271.1,70.4 271.1,70.4 271.1,70.7 270.8,70.7 270.8,70.7 "/>
<polygon class="st4" points="271.8,70.7 271.8,70.4 272.1,70.4 272.1,70.7 272.4,70.7 272.5,70.6 272.6,70.6 272.6,70.6 272.7,70.6 
	272.7,70.5 272.8,70.5 272.8,70.4 272.8,70.4 273,70.4 273,70.4 273,70.5 273,70.6 273,70.6 272.9,70.7 271.8,70.7 271.8,70.7 "/>
<polygon class="st4" points="273.6,70.7 273.6,70.4 273.6,70.4 274,70.4 274,70.7 273.6,70.7 273.6,70.7 "/>
<polygon class="st4" points="270.8,70.7 270.8,70.7 270.8,71 270.9,71.3 271.1,71.6 271.3,71.9 271.5,72.1 271.8,72.2 272.1,72.3 
	272.4,72.3 272.7,72.3 273,72.2 273.3,72.1 273.5,71.9 273.7,71.6 273.9,71.3 274,71 274,70.7 274,70.7 273.6,70.7 273.6,70.7 
	273.6,71 273.6,71.2 273.5,71.4 273.3,71.6 273.1,71.8 272.9,71.9 272.6,72 272.4,72 272.1,72 271.9,71.9 271.7,71.8 271.5,71.6 
	271.3,71.4 271.2,71.2 271.1,71 271.1,70.7 271.1,70.7 270.8,70.7 270.8,70.7 "/>
<polygon class="st4" points="271.8,70.7 271.8,71.3 272.1,71.3 272.1,70.8 272.4,70.8 272.7,71.3 273,71.3 272.6,70.8 272.7,70.8 
	272.8,70.8 272.8,70.7 272.9,70.7 272.9,70.7 271.8,70.7 271.8,70.7 "/>
<path class="st1" d="M221.2,49.9l-0.1-0.7l-0.2-0.6l-0.2-0.5l-0.3-0.5l-0.3-0.4l-0.4-0.3l-0.4-0.3l-0.4-0.2l-0.5-0.2l-0.5-0.1
	l-0.5-0.1H217h-0.4h-0.9l-0.8,0.1l-0.7,0.2l-0.7,0.3l-0.6,0.3l-0.5,0.4l-0.4,0.4l-0.4,0.5l-0.3,0.5l-0.3,0.5l-0.2,0.5l-0.2,0.5
	l-0.1,0.5l-0.1,0.4l-0.1,0.4V52l-0.1,0.9v0.8l0.1,0.8l0.2,0.7l0.3,0.6l0.3,0.5l0.4,0.5l0.4,0.4l0.5,0.3l0.5,0.3l0.5,0.2l0.6,0.2
	l0.6,0.1l0.6,0.1l0.6,0.1h1.9h0.3h0.2h0.2h0.2h0.2h0.2l0.2-0.1l0.2-0.1l0.2-0.1l0.2-0.1l0.2-0.1l0.2-0.1l0.5-2.8l-0.3,0.2l-0.3,0.2
	l-0.3,0.1l-0.3,0.1l-0.3,0.1l-0.3,0.1l-0.3,0.1H218h-0.3h-0.9h-0.3h-0.3h-0.3h-0.3h-0.2l-0.2-0.1l-0.2-0.1l-0.2-0.1l-0.2-0.1
	l-0.2-0.2l-0.2-0.2l-0.2-0.2l-0.1-0.2l-0.1-0.2l-0.1-0.2l-0.1-0.2v-0.2v-0.2v-0.2v-0.2h7.4l0.1-0.7l0.2-1l0.1-0.9L221.2,49.9z
	 M218.1,50.9H214v-0.2v-0.2l0.1-0.2l0.1-0.2l0.1-0.2l0.1-0.2l0.1-0.2l0.1-0.2l0.1-0.2l0.1-0.1l0.2-0.1l0.2-0.1l0.2-0.1l0.2-0.1h0.2
	h0.2h0.2h0.2h0.2h0.2l0.2,0.1l0.2,0.1l0.2,0.1l0.1,0.1l0.1,0.1l0.1,0.2l0.1,0.2l0.1,0.2l0.1,0.2v0.2v0.2v0.3L218.1,50.9z"/>
<g>
	<defs>
		<path id="SVGID_1_" d="M306.7,10.8h117.1c2.3,0,4.2,1.9,4.2,4.2v70c0,2.3-1.9,4.2-4.2,4.2H306.7c-2.3,0-4.2-1.9-4.2-4.2V15
			C302.5,12.7,304.4,10.8,306.7,10.8z"/>
	</defs>
	<clipPath id="SVGID_2_">
		<use xlink:href="#SVGID_1_"  style="overflow:visible;"/>
	</clipPath>
	<g class="st7">
		<path class="st8" d="M316-0.5h40.4c5.6,0,9.1,4.6,7.8,10.2l-18.8,80.7c-1.3,5.6-7,10.2-12.6,10.2h-40.4c-5.6,0-9.1-4.6-7.8-10.2
			l18.8-80.7C304.7,4.1,310.4-0.5,316-0.5z"/>
		<path class="st9" d="M353-0.5h46.5c5.6,0,3.1,4.6,1.8,10.2l-18.8,80.7c-1.3,5.6-0.9,10.2-6.6,10.2h-46.4c-5.6,0-9.1-4.6-7.8-10.2
			l18.8-80.7C341.8,4.1,347.4-0.5,353-0.5z"/>
		<path class="st10" d="M397.6-0.5H438c5.6,0,9.1,4.6,7.8,10.2L427,90.5c-1.3,5.6-7,10.2-12.6,10.2H374c-5.6,0-9.1-4.6-7.8-10.2
			L385,9.8C386.3,4.1,392-0.5,397.6-0.5z"/>
		<path class="st1" d="M384.1,70.1h3.2l0.9-3H385L384.1,70.1z M386.6,61.7l-1.1,3.6c0.6-0.3,1.2-0.6,1.9-0.8
			c0.6-0.2,1.6-0.3,1.6-0.3l0.8-2.5L386.6,61.7 M388.2,56.5l-1,3.5c0.6-0.3,1.2-0.5,1.8-0.7c0.5-0.1,1.1-0.2,1.6-0.2l0.8-2.5
			L388.2,56.5 M395.2,56.5l-4.1,13.5h1.1l-0.9,2.8h-1.1l-0.3,0.9h-3.9l0.3-0.9h-7.9l0.8-2.6h0.8l4.1-13.7l0.8-2.8h4l-0.4,1.4
			c0.6-0.4,1.3-0.8,2.1-1c1-0.3,6.8-0.4,6.8-0.4l-0.9,2.8L395.2,56.5"/>
		<path class="st1" d="M397,53.8h4.2v1.6c0,0.3,0.2,0.4,0.7,0.4h0.9l-0.8,2.6h-2.3c-2,0.1-2.7-0.7-2.7-1.7L397,53.8z"/>
		<path class="st1" d="M397.5,66.1h-4l0.7-2.3h4.6l0.6-2.1h-4.6l0.8-2.6h12.7l-0.8,2.6h-4.3l-0.7,2.1h4.3l-0.7,2.3h-4.6l-0.8,1h1.9
			l0.5,2.9c0,0.2,0.1,0.4,0.1,0.6c0.3,0.1,0.7,0.2,1,0.2h0.6l-0.9,2.8h-1.5h-1c-0.4-0.1-0.7-0.2-1-0.4c-0.4-0.2-0.7-0.6-0.8-1
			l-0.5-2.9l-2.1,2.9c-0.7,1-1.9,1.6-3.1,1.6h-2.9l0.8-2.5h1.1c0.3,0,0.6-0.1,0.8-0.2c0.3-0.1,0.5-0.3,0.6-0.5L397.5,66.1z"/>
		<path class="st1" d="M353.3,59.8H364l-0.8,2.5h-4.3l-0.7,2.2h4.4l-0.8,2.6h-4.4l-1.1,3.5c-0.1,0.4,1,0.4,1.5,0.4l2.2-0.3l-0.9,2.9
			h-4.9c-0.4,0-0.8-0.1-1.1-0.2c-0.3-0.1-0.6-0.3-0.8-0.6c-0.3-0.3-0.4-0.7-0.3-1.1l1.4-4.7H351l0.8-2.7h2.4l0.6-2.2h-2.4
			L353.3,59.8z"/>
		<path class="st1" d="M360.5,55.2h4.4l-0.8,2.7h-6l-0.6,0.6c-0.3,0.3-0.4,0.2-0.7,0.3c-0.6,0.3-1.3,0.5-2,0.5h-1.9l0.8-2.6h0.6
			c0.3,0,0.7,0,1-0.2c0.3-0.2,0.5-0.5,0.6-0.8l1.1-2h4.4L360.5,55.2z"/>
		<path class="st1" d="M368.9,59.6c0.9-0.8,2.1-1.3,3.2-1.5c0.5-0.1,3.4-0.1,3.4-0.1l0.4-1.5h-6.2L368.9,59.6z M374.7,60.7h-6.1
			l-0.4,1.2h5.3c0.3,0,0.5,0,0.8,0L374.7,60.7 M366.8,53.8h3.7l-0.5,1.9c0.6-0.5,1.3-0.9,2-1.3c0.9-0.3,1.8-0.5,2.7-0.6h6l-2.1,6.9
			c-0.2,0.8-0.5,1.6-1,2.3c-0.2,0.4-0.6,0.7-1,0.9c-0.4,0.2-0.9,0.4-1.4,0.5c-0.4,0-1,0-1.9,0.1h-5.8l-1.6,5.4
			c-0.2,0.5-0.2,0.8-0.1,0.9c0.1,0.2,0.3,0.3,0.6,0.3l2.6-0.2l-0.9,3h-2.9c-0.9,0-1.6,0-2-0.1c-0.4,0-0.8-0.1-1.2-0.2
			c-0.3-0.2-0.7-0.6-0.7-0.9c0.1-0.5,0.2-1,0.3-1.5l5.2-17.3"/>
		<path class="st1" d="M377.7,64.8l-0.4,1.7c-0.1,0.5-0.3,0.9-0.7,1.2c-0.5,0.5-1.3,0.8-2,0.7l-2.1,0.1v1.9c0,0.5,0.1,0.5,0.2,0.6
			c0.1,0.1,0.2,0.1,0.3,0.2h0.7l2-0.1l-0.8,2.7h-2.3c-1.6,0-2.8,0-3.2-0.3s-0.4-0.6-0.4-1.1l0.1-7.3h3.6l0,1.5h0.9
			c0.2,0,0.4,0,0.6-0.1c0.1-0.1,0.2-0.2,0.2-0.4l0.4-1.2L377.7,64.8z"/>
		<path class="st1" d="M325.9,28.4c-0.1,0.6-2.5,11.3-2.5,11.3c-0.5,2.2-0.9,3.7-2.1,4.7c-0.7,0.6-1.6,0.9-2.5,0.9
			c-1.3,0.2-2.4-0.7-2.6-2c0-0.1,0-0.1,0-0.2v-0.5c0,0,0.5-2.9,0.5-2.9s2.4-9.8,2.9-11.1c0,0,0-0.1,0-0.1c-4.8,0-5.6,0-5.7-0.1
			c0,0.1-0.1,0.7-0.1,0.7l-2.5,11l-0.2,0.9l-0.4,3.1c0,0.8,0.2,1.6,0.5,2.3c1.1,2,4.4,2.3,6.2,2.3c2.1,0.1,4.2-0.4,6.1-1.4
			c2.6-1.5,3.3-3.9,3.9-6.1l0.3-1.1c0,0,2.5-10.2,3-11.5c0,0,0-0.1,0-0.1C329,28.5,327.4,28.5,325.9,28.4z"/>
		<path class="st1" d="M339.8,48.6c-1.7,0-2.3,0-4.3,0.1l-0.1-0.2c0.2-0.8,0.4-1.5,0.5-2.2l0.2-1c0.4-1.6,0.7-3.5,0.8-4
			c0-0.3,0.2-1.2-0.8-1.2c-0.4,0-0.9,0.2-1.3,0.4c-0.2,0.8-0.7,3.2-1,4.3c-0.5,2.3-0.5,2.6-0.7,3.7l-0.1,0.2c-1.7,0-2.3,0-4.3,0.1
			l-0.1-0.2c0.3-1.4,0.7-2.7,1-4.1c0.6-2.3,1-4.6,1.3-7l0.2-0.1c2-0.3,2.4-0.3,4.5-0.8l0.2,0.2l-0.3,1.2c0.4-0.2,0.7-0.4,1.1-0.6
			c0.8-0.4,1.8-0.6,2.7-0.6c1-0.1,1.9,0.4,2.4,1.2c0.4,1,0.1,2.1-0.4,4.4l-0.3,1.2c-0.5,2.6-0.6,3-0.9,4.8L339.8,48.6z"/>
		<path class="st1" d="M346.6,48.6c-1,0-1.7,0-2.3,0s-1.3,0-2.2,0.1l0-0.1l-0.1-0.1c0.1-0.6,0.3-1.1,0.5-1.7
			c0.2-0.5,0.4-1.1,0.5-1.7c0.3-1.3,0.5-2.2,0.6-3s0.2-1.4,0.3-2.2l0,0l0.1-0.1l2.3-0.3c0.7-0.1,1.3-0.2,2.4-0.4v0.1v0.1
			c-0.2,0.8-0.4,1.6-0.6,2.4s-0.4,1.6-0.6,2.4c-0.4,1.7-0.5,2.3-0.6,2.8s-0.1,0.7-0.3,1.5L346.6,48.6L346.6,48.6z"/>
		<path class="st1" d="M357.4,42.6c-0.2,1-0.5,1.9-1,2.8c-0.3,0.5-0.7,0.8-1.3,0.8c-0.1,0-1,0-1-1.2c0-0.6,0.1-1.3,0.3-1.9
			c0.4-2,1-3.6,2.3-3.6C357.8,39.4,357.9,40.7,357.4,42.6z M361.8,42.8c0.6-2.6,0.1-3.8-0.5-4.5c-1-1.1-2.5-1.6-4-1.5
			c-1.9-0.1-3.7,0.6-5.1,1.8c-1.2,1.2-2,2.7-2.3,4.4c-0.4,1.6-0.8,4.5,1.9,5.5c0.9,0.3,1.8,0.5,2.7,0.4c2,0.1,4-0.7,5.4-2.1
			C360.9,45.6,361.6,44.2,361.8,42.8"/>
		<path class="st1" d="M403.1,48.8c-2,0-2.6,0-4.5,0.1l-0.1-0.2c0.5-1.9,1-3.9,1.5-5.8c0.4-1.7,0.7-3.4,0.9-5.1l0.1-0.1
			c2-0.3,2.6-0.4,4.7-0.8l0.1,0.2c-0.4,1.6-0.8,3.2-1.1,4.8c-0.8,3.3-1,5-1.4,6.8L403.1,48.8z"/>
		<path class="st1" d="M400,42.8c-0.2,1-0.5,1.9-1,2.8c-0.4,0.5-1,0.8-1.6,0.8c-0.1,0-1,0-1-1.2c0-0.6,0.1-1.3,0.3-1.9
			c0.5-1.9,1-3.6,2.3-3.6C400,39.7,400.5,40.9,400,42.8z M404,43c0.6-2.6-1.8-0.2-2.2-1.1c-0.6-1.3-0.2-4-2.6-4.9
			c-0.9-0.3-3,0.1-4.8,1.8c-1.2,1.2-2,2.7-2.2,4.3c-0.4,1.6-0.8,4.4,1.8,5.4c0.7,0.3,1.5,0.5,2.3,0.4c2.6-0.1,4.6-4.1,6.1-5.7
			C403.6,42.1,403.8,43.8,404,43"/>
		<path class="st1" d="M373.3,48.6c-1.7,0-2.3,0-4.2,0.1l-0.1-0.2c0.2-0.8,0.4-1.5,0.5-2.2l0.2-1c0.3-1.3,0.6-2.7,0.8-4
			c0-0.3,0.2-1.2-0.8-1.2c-0.5,0-0.9,0.2-1.3,0.4c-0.2,0.8-0.7,3.2-1,4.3c-0.5,2.3-0.5,2.6-0.7,3.7l-0.1,0.2c-1.7,0-2.3,0-4.3,0.1
			l-0.1-0.2c0.3-1.4,0.7-2.7,1-4.1c0.6-2.3,1-4.6,1.3-7l0.1-0.1c2-0.3,2.4-0.3,4.5-0.8l0.2,0.2L369,38c0.4-0.2,0.7-0.4,1.1-0.6
			c0.8-0.4,1.8-0.6,2.7-0.6c1-0.1,1.9,0.4,2.4,1.2c0.4,1,0.1,2.1-0.4,4.4l-0.3,1.2c-0.6,2.6-0.6,3-0.9,4.8L373.3,48.6z"/>
		<path class="st1" d="M388,28.4h-1.4c-3.6,0-5.1,0-5.7,0l-0.1,0.7l-1.3,6.1l-3.3,13.5c3.2,0,4.5,0,5,0c0.1-0.6,0.9-4.2,0.9-4.2
			s0.6-2.6,0.7-2.7c0.1-0.1,0.2-0.3,0.4-0.4h0.3c2.8,0,5.9,0,8.3-1.8c1.7-1.3,2.9-3.2,3.3-5.3c0.1-0.6,0.2-1.2,0.2-1.8
			c0-0.8-0.2-1.6-0.7-2.3C393.3,28.5,390.8,28.4,388,28.4z M389.8,34.7c-0.3,1.3-1.1,2.4-2.3,3c-1,0.4-2.1,0.6-3.2,0.5h-0.8l0.1-0.3
			l1.4-6v-0.3v-0.2l0.6,0.1l2.9,0.2C389.6,32.1,390.1,33.3,389.8,34.7"/>
		<path class="st1" d="M419.7,36.9l-0.2-0.2c-2.1,0.4-2.5,0.5-4.4,0.8l-0.1,0.1v0.1l0,0c-1.4,3.3-1.4,2.6-2.5,5.2c0-0.1,0-0.2,0-0.3
			l-0.3-5.6l-0.2-0.2c-2.2,0.4-2.2,0.5-4.2,0.8l-0.2,0.1c0,0.1,0,0.1,0,0.2l0,0c0.2,1,0.3,2,0.4,3c0.1,1,0.3,2,0.4,3
			c0.2,1.7,0.3,2.5,0.5,5c-1.4,2.2-1.7,3.1-3,5.1l0.1,0.2c2-0.1,2.4-0.1,3.9-0.1l0.3-0.4C411.4,51.3,419.7,36.9,419.7,36.9z"/>
		<path class="st1" d="M348.5,38.3c1.1-0.8,1.3-1.8,0.3-2.4c-1.2-0.5-2.7-0.4-3.8,0.4c-1.1,0.8-1.2,1.8-0.3,2.4
			C346,39.2,347.4,39,348.5,38.3z"/>
		<path class="st1" d="M410.1,53.8l-1.6,2.8c-0.6,1.1-1.8,1.7-3,1.7h-2.6l0.8-2.5h0.5c0.2,0,0.4,0,0.6-0.1c0.1-0.1,0.3-0.2,0.3-0.3
			l1-1.5L410.1,53.8z"/>
	</g>
</g>
</svg>
