<svg xmlns="http://www.w3.org/2000/svg" width="17.692" height="15.312" viewBox="0 0 17.692 15.312">
  <g id="Group_16" data-name="Group 16" transform="translate(-217 -474)">
    <path id="aircon-icon" d="M17.846,9.047l-.476-.761H15.277l.856-1.522L15.657,6h-.95L13.375,8.381H10.331l1.522-2.663h2.758l.476-.761L14.611,4.2H12.8l1.141-2-.476-.761h-.951L11.472,3.245l-.855-1.522H9.666l-.476.762,1.332,2.378L9.1,7.431,7.573,4.767,8.9,2.39l-.476-.761H7.478L6.622,3.151,5.576,1.344H4.625l-.476.761L5.2,3.912H3.388l-.476.761.476.761H6.146L7.668,8.1H4.625L3.293,5.719H2.342l-.476.761L2.722,8H.63l-.476.76.476.761H2.723l-.856,1.522.476.761h.951L4.626,9.428H7.67L6.148,12.091H3.388l-.476.761.476.761H5.2L4.149,15.42l.476.761h.951l1.046-1.807L7.478,15.9h.951l.476-.761L7.573,12.757,9.1,10.094l1.522,2.663L9.19,15.61l.476.761h.951l.856-1.522,1.046,1.807h.951l.476-.761L12.9,14.088h1.807l.476-.761-.476-.761H11.949L10.427,9.9h3.044L14.8,12.281h.951l.476-.761L15.374,10h2.093S17.846,9.047,17.846,9.047Z" transform="translate(216.846 472.656)" fill="#f7ca5c" fill-rule="evenodd"/>
  </g>
</svg>
