<svg xmlns="http://www.w3.org/2000/svg" width="15" height="15" viewBox="0 0 15 15">
  <g id="Group_1" data-name="Group 1" transform="translate(-1269 -412)">
    <path id="Check-Fill" d="M11.8,4.3a7.5,7.5,0,1,0,7.5,7.5,7.5,7.5,0,0,0-7.5-7.5Zm5.034,5.158-6.208,6.208a.538.538,0,0,1-.762,0h0L6.354,12.16a.538.538,0,0,1,0-.762l.762-.767a.538.538,0,0,1,.762,0l2.363,2.363,5.06-5.06a.538.538,0,0,1,.762,0l.762.762a.529.529,0,0,1,.01.762Z" transform="translate(1264.7 407.7)" fill="#e5a812"/>
  </g>
</svg>
