<svg xmlns="http://www.w3.org/2000/svg" width="17.6" height="16.2" viewBox="0 0 17.6 16.2">
  <path id="door-icon" d="M9.008,17.114h-7.9a.8.8,0,0,1-.9-.9v-7a2.26,2.26,0,0,1,1.7-2.3.215.215,0,0,0,.2-.2c1.1-1.4,2.1-2.8,3.2-4.3a3.442,3.442,0,0,1,3-1.5h7.9a.736.736,0,0,1,.8.8v5.4c0,.2,0,.3.2.4a2.035,2.035,0,0,1,.6,1.5v7.2a.736.736,0,0,1-.8.8C14.408,17.114,11.708,17.114,9.008,17.114Zm6.6-14.7h-7.3a1.965,1.965,0,0,0-1.7.9c-.7.9-1.3,1.8-2,2.6a5.5,5.5,0,0,1-.7.9h11.7Zm-1.4,8.1h.7a.849.849,0,0,0,.8-.7.849.849,0,0,0-.7-.8h-1.5a.7.7,0,0,0,0,1.4A1.483,1.483,0,0,0,14.208,10.514Z" transform="translate(-0.208 -0.914)" fill="#f7ca5c"/>
</svg>
