<svg xmlns="http://www.w3.org/2000/svg" width="19.8" height="19.8" viewBox="0 0 19.8 19.8">
  <g id="Group_1" data-name="Group 1" transform="translate(-109.7 -5.8)">
    <path id="Path_1" data-name="Path 1" d="M117.9,17.5a2.815,2.815,0,0,0-.6-1.5,19.822,19.822,0,0,1-1.9-3.1c0-.1-.1-.1-.1-.2a2.186,2.186,0,0,1-.3.5,26.06,26.06,0,0,1-1.7,2.8,2.565,2.565,0,0,0-.2,2.9,2.4,2.4,0,0,0,3.1,1.1A2.537,2.537,0,0,0,117.9,17.5Zm-2.2-.6c.1.1.1.1.1.2v.2h-1.1v.4h1.1v.4h-1a2.186,2.186,0,0,0,.3.5.764.764,0,0,0,.5.2,1.268,1.268,0,0,0,.6-.1h.1a.1.1,0,0,1,.1.1V19c0,.1-.1.2-.2.3a1.483,1.483,0,0,1-.7.1,1.268,1.268,0,0,1-.6-.1c-.2-.1-.3-.1-.4-.3a1.381,1.381,0,0,1-.3-.4c-.1-.1-.1-.3-.2-.5h-.4v-.4h.4v-.4h-.4v-.4h.4a1.456,1.456,0,0,1,.6-.9,1.613,1.613,0,0,1,.9-.3,1.445,1.445,0,0,1,.7.2c.1,0,.1.1.1.2s0,.1-.1.2l-.1.1H116a1.421,1.421,0,0,0-.6-.2.764.764,0,0,0-.5.2,2.186,2.186,0,0,0-.3.5Z" fill="#f7ca5c"/>
    <path id="Path_2" data-name="Path 2" d="M119.6,5.8a9.9,9.9,0,1,0,9.9,9.9A9.859,9.859,0,0,0,119.6,5.8Zm7.6,14.3a10.375,10.375,0,0,0-.4-1c-.3-1.1-1.1-3.8-1.1-4.1-.1-.3-.1-.4.2-.4a7.083,7.083,0,0,1,1.5-.1c.3,0,.4-.1.4-.4a1.6,1.6,0,0,0-1.2-1.3,3.278,3.278,0,0,0-1,0,10.626,10.626,0,0,0-.9-1.1c-.3-.4-.5-.5-.9-.2s-.3.3-.9,0a8.683,8.683,0,0,0-7.5-.5c-.2.1-.3.2-.2.4a.367.367,0,0,0,.1.3c.2.4.3.5.8.3a7.69,7.69,0,0,1,4.5-.2,3.946,3.946,0,0,1,1.5.6q.3.15,0,.3c-.1.1-.3.2-.4.4a1.087,1.087,0,0,0,.1.5c.2.3.4.5.6.8.1.1.1.2-.1.4a7.632,7.632,0,0,1-1.1.8c-.3.2-.4.4-.3.7a13.355,13.355,0,0,0,.7,1.8,6.829,6.829,0,0,0,1.8,2.3c.3.3.4.3.8,0a1.874,1.874,0,0,0,.6-.7l-.2-.1-.2.2c-.3.1-.5.3-.8-.1a.349.349,0,0,0,.1-.2,4.129,4.129,0,0,1,1.1-.7c.2-.1.2-.1.3.1.2.5.3,1,.5,1.6a3.552,3.552,0,0,0,.4.9v.3a8.37,8.37,0,0,1-6.4,2.8,8.85,8.85,0,1,1,7.6-4.4ZM124,16.7c-.2-.3-.4-.7-.6-1-.2-.2.3-.4.4-.5.2-.1.3-.1.4.1.3.6.5,1.2.8,1.8.1.3.2.4-.1.7-.2.2-.6.5-.8.7v-.2A1.528,1.528,0,0,0,124,16.7Zm-.3.9a1.759,1.759,0,0,1-.1.6.451.451,0,0,1-.3.3,4.569,4.569,0,0,1-1.1-1.6.758.758,0,0,0-.2-.4.367.367,0,0,1,.1-.3c.2-.4.5-.3.8,0A2.477,2.477,0,0,1,123.7,17.6Z" fill="#f7ca5c"/>
  </g>
</svg>
