<svg xmlns="http://www.w3.org/2000/svg" width="13.022" height="13.018" viewBox="0 0 13.022 13.018">
  <g id="icon-star" transform="translate(0.511 0.5)">
    <path id="Star" d="M14.122,10.805l2.594.39a.946.946,0,0,1,.5,1.594L15.341,14.7a.961.961,0,0,0-.257.828l.446,2.693a.9.9,0,0,1-1.3.987l-2.321-1.269a.864.864,0,0,0-.835,0L8.757,19.215a.905.905,0,0,1-1.3-.984l.44-2.694a.961.961,0,0,0-.259-.828L5.758,12.8a.946.946,0,0,1,.495-1.6l2.593-.4A.9.9,0,0,0,9.52,10.3l1.157-2.453a.881.881,0,0,1,1.608,0l1.163,2.449a.9.9,0,0,0,.675.511Z" transform="translate(-5.485 -7.325)" fill="#0a0a0a" stroke="#0a0a0a" stroke-width="1"/>
  </g>
</svg>
